<svg width="48" height="48" viewBox="0 0 48 48" fill="none" xmlns="http://www.w3.org/2000/svg">
<rect width="48" height="48" rx="24" fill="#29444D"/>
<path fill-rule="evenodd" clip-rule="evenodd" d="M13.1458 17.75C13.1458 15.236 15.0953 13.1979 17.5 13.1979C19.9048 13.1979 21.8542 15.236 21.8542 17.75V18.164L23.7181 16.2154C25.4185 14.4377 28.1754 14.4377 29.8758 16.2154C31.5762 17.9931 31.5762 20.8753 29.8758 22.653L27.9198 24.6979H28.5C30.9048 24.6979 32.8542 26.736 32.8542 29.25C32.8542 31.764 30.9048 33.8021 28.5 33.8021H17.5C15.0953 33.8021 13.1458 31.764 13.1458 29.25V17.75ZM20.6755 32.3646H28.5C30.1454 32.3646 31.4792 30.9701 31.4792 29.25C31.4792 27.5299 30.1454 26.1354 28.5 26.1354H26.5448L21.0648 31.8645C20.9463 32.0408 20.8161 32.2079 20.6755 32.3646ZM21.8542 29.0063L28.9035 21.6366C30.067 20.4202 30.067 18.4482 28.9035 17.2319C27.7401 16.0156 25.8538 16.0156 24.6903 17.2319L21.8542 20.197V29.0063ZM17.5 14.6354C15.8547 14.6354 14.5208 16.0299 14.5208 17.75V29.25C14.5208 30.9701 15.8547 32.3646 17.5 32.3646C19.1454 32.3646 20.4792 30.9701 20.4792 29.25V17.75C20.4792 16.0299 19.1454 14.6354 17.5 14.6354ZM17.5 29.0104C17.3734 29.0104 17.2708 29.1177 17.2708 29.25C17.2708 29.3823 17.3734 29.4896 17.5 29.4896C17.6266 29.4896 17.7292 29.3823 17.7292 29.25C17.7292 29.1177 17.6266 29.0104 17.5 29.0104ZM15.8958 29.25C15.8958 28.3238 16.6141 27.5729 17.5 27.5729C18.386 27.5729 19.1042 28.3238 19.1042 29.25C19.1042 30.1762 18.386 30.9271 17.5 30.9271C16.6141 30.9271 15.8958 30.1762 15.8958 29.25Z" fill="#50C3E6"/>
</svg>
