<svg width="45" height="46" viewBox="0 0 45 46" fill="none" xmlns="http://www.w3.org/2000/svg">
<circle cx="22.5" cy="23" r="22.5" fill="#163526"/>
<path d="M28 31H18C15 31 13 29.5 13 26V19C13 15.5 15 14 18 14H28C31 14 33 15.5 33 19V26C33 29.5 31 31 28 31Z" stroke="#14BA6D" stroke-width="1.5" stroke-miterlimit="10" stroke-linecap="round" stroke-linejoin="round"/>
<path d="M23 25.5C24.6569 25.5 26 24.1569 26 22.5C26 20.8431 24.6569 19.5 23 19.5C21.3431 19.5 20 20.8431 20 22.5C20 24.1569 21.3431 25.5 23 25.5Z" stroke="#14BA6D" stroke-width="1.5" stroke-miterlimit="10" stroke-linecap="round" stroke-linejoin="round"/>
<path d="M16.5 20V25" stroke="#14BA6D" stroke-width="1.5" stroke-miterlimit="10" stroke-linecap="round" stroke-linejoin="round"/>
<path d="M29.5 20V25" stroke="#14BA6D" stroke-width="1.5" stroke-miterlimit="10" stroke-linecap="round" stroke-linejoin="round"/>
</svg>
