<svg width="48" height="48" viewBox="0 0 48 48" fill="none" xmlns="http://www.w3.org/2000/svg">
<rect width="48" height="48" rx="24" fill="#383A2D"/>
<path d="M14 27.9C14 26.5906 14 25.9359 14.2947 25.455C14.4596 25.1859 14.6859 24.9596 14.955 24.7947C15.4359 24.5 16.0906 24.5 17.4 24.5H18.5C20.3856 24.5 21.3284 24.5 21.9142 25.0858C22.5 25.6716 22.5 26.6144 22.5 28.5V29.6C22.5 30.9094 22.5 31.5641 22.2053 32.045C22.0404 32.3141 21.8141 32.5404 21.545 32.7053C21.0641 33 20.4094 33 19.1 33C17.1359 33 16.1539 33 15.4325 32.5579C15.0288 32.3106 14.6894 31.9712 14.4421 31.5675C14 30.8461 14 29.8641 14 27.9Z" stroke="#B8B220" stroke-width="1.5"/>
<path d="M25.5 16.4C25.5 15.0906 25.5 14.4359 25.7947 13.955C25.9596 13.6859 26.1859 13.4596 26.455 13.2947C26.9359 13 27.5906 13 28.9 13C30.8641 13 31.8461 13 32.5675 13.4421C32.9712 13.6894 33.3106 14.0288 33.5579 14.4325C34 15.1539 34 16.1359 34 18.1C34 19.4094 34 20.0641 33.7053 20.545C33.5404 20.8141 33.3141 21.0404 33.045 21.2053C32.5641 21.5 31.9094 21.5 30.6 21.5H29.5C27.6144 21.5 26.6716 21.5 26.0858 20.9142C25.5 20.3284 25.5 19.3856 25.5 17.5V16.4Z" stroke="#B8B220" stroke-width="1.5"/>
<path d="M28.5 17.25C28.5 16.7346 28.5 16.4769 28.6291 16.2949C28.6747 16.2307 28.7307 16.1747 28.7949 16.1291C28.9769 16 29.2346 16 29.75 16C30.2654 16 30.5231 16 30.7051 16.1291C30.7693 16.1747 30.8253 16.2307 30.8709 16.2949C31 16.4769 31 16.7346 31 17.25C31 17.7654 31 18.0231 30.8709 18.2051C30.8253 18.2693 30.7693 18.3253 30.7051 18.3709C30.5231 18.5 30.2654 18.5 29.75 18.5C29.2346 18.5 28.9769 18.5 28.7949 18.3709C28.7307 18.3253 28.6747 18.2693 28.6291 18.2051C28.5 18.0231 28.5 17.7654 28.5 17.25Z" fill="#B8B220"/>
<path d="M24.75 33C24.75 33.4142 25.0858 33.75 25.5 33.75C25.9142 33.75 26.25 33.4142 26.25 33H24.75ZM26.3889 24.8371L26.8055 25.4607L26.8055 25.4607L26.3889 24.8371ZM25.8371 25.3889L25.2135 24.9722L25.2135 24.9722L25.8371 25.3889ZM31 23.75H29V25.25H31V23.75ZM24.75 30V33H26.25V30H24.75ZM29 23.75C28.3134 23.75 27.742 23.7491 27.281 23.796C26.8075 23.8441 26.3682 23.9489 25.9722 24.2135L26.8055 25.4607C26.914 25.3882 27.078 25.3244 27.4328 25.2883C27.8002 25.2509 28.2822 25.25 29 25.25V23.75ZM26.25 28C26.25 27.2822 26.2509 26.8002 26.2883 26.4328C26.3244 26.078 26.3882 25.914 26.4607 25.8055L25.2135 24.9722C24.9489 25.3682 24.8441 25.8075 24.796 26.281C24.7491 26.742 24.75 27.3134 24.75 28H26.25ZM25.9722 24.2135C25.6719 24.4141 25.4141 24.6719 25.2135 24.9722L26.4607 25.8055C26.5519 25.669 26.669 25.5519 26.8055 25.4607L25.9722 24.2135Z" fill="#B8B220"/>
<path d="M34.75 24.5C34.75 24.0858 34.4142 23.75 34 23.75C33.5858 23.75 33.25 24.0858 33.25 24.5H34.75ZM32.7654 32.8478L33.0524 33.5407L33.0524 33.5407L32.7654 32.8478ZM33.8478 31.7654L33.1548 31.4784V31.4784L33.8478 31.7654ZM29 33.75H31V32.25H29V33.75ZM34.75 28V24.5H33.25V28H34.75ZM31 33.75C31.4557 33.75 31.835 33.7504 32.1454 33.7292C32.4625 33.7076 32.762 33.661 33.0524 33.5407L32.4784 32.1548C32.4012 32.1868 32.284 32.2163 32.0433 32.2327C31.7958 32.2496 31.4762 32.25 31 32.25V33.75ZM33.25 30C33.25 30.4762 33.2496 30.7958 33.2327 31.0433C33.2163 31.284 33.1868 31.4012 33.1548 31.4784L34.5407 32.0524C34.661 31.762 34.7076 31.4625 34.7292 31.1454C34.7504 30.835 34.75 30.4557 34.75 30H33.25ZM33.0524 33.5407C33.7262 33.2616 34.2616 32.7262 34.5407 32.0524L33.1548 31.4784C33.028 31.7846 32.7846 32.028 32.4784 32.1549L33.0524 33.5407Z" fill="#B8B220"/>
<path d="M14 18.1C14 16.1359 14 15.1539 14.4421 14.4325C14.6894 14.0288 15.0288 13.6894 15.4325 13.4421C16.1539 13 17.1359 13 19.1 13C20.4094 13 21.0641 13 21.545 13.2947C21.8141 13.4596 22.0404 13.6859 22.2053 13.955C22.5 14.4359 22.5 15.0906 22.5 16.4V17.5C22.5 19.3856 22.5 20.3284 21.9142 20.9142C21.3284 21.5 20.3856 21.5 18.5 21.5H17.4C16.0906 21.5 15.4359 21.5 14.955 21.2053C14.6859 21.0404 14.4596 20.8141 14.2947 20.545C14 20.0641 14 19.4094 14 18.1Z" stroke="#B8B220" stroke-width="1.5"/>
<path d="M17 17.25C17 16.7346 17 16.4769 17.1291 16.2949C17.1747 16.2307 17.2307 16.1747 17.2949 16.1291C17.4769 16 17.7346 16 18.25 16C18.7654 16 19.0231 16 19.2051 16.1291C19.2693 16.1747 19.3253 16.2307 19.3709 16.2949C19.5 16.4769 19.5 16.7346 19.5 17.25C19.5 17.7654 19.5 18.0231 19.3709 18.2051C19.3253 18.2693 19.2693 18.3253 19.2051 18.3709C19.0231 18.5 18.7654 18.5 18.25 18.5C17.7346 18.5 17.4769 18.5 17.2949 18.3709C17.2307 18.3253 17.1747 18.2693 17.1291 18.2051C17 18.0231 17 17.7654 17 17.25Z" fill="#B8B220"/>
<path d="M17 28.75C17 28.2346 17 27.9769 17.1291 27.7949C17.1747 27.7307 17.2307 27.6747 17.2949 27.6291C17.4769 27.5 17.7346 27.5 18.25 27.5C18.7654 27.5 19.0231 27.5 19.2051 27.6291C19.2693 27.6747 19.3253 27.7307 19.3709 27.7949C19.5 27.9769 19.5 28.2346 19.5 28.75C19.5 29.2654 19.5 29.5231 19.3709 29.7051C19.3253 29.7693 19.2693 29.8253 19.2051 29.8709C19.0231 30 18.7654 30 18.25 30C17.7346 30 17.4769 30 17.2949 29.8709C17.2307 29.8253 17.1747 29.7693 17.1291 29.7051C17 29.5231 17 29.2654 17 28.75Z" fill="#B8B220"/>
<path d="M28 28.75C28 28.0478 28 27.6967 28.1685 27.4444C28.2415 27.3352 28.3352 27.2415 28.4444 27.1685C28.6967 27 29.0478 27 29.75 27C30.4522 27 30.8033 27 31.0556 27.1685C31.1648 27.2415 31.2585 27.3352 31.3315 27.4444C31.5 27.6967 31.5 28.0478 31.5 28.75C31.5 29.4522 31.5 29.8033 31.3315 30.0556C31.2585 30.1648 31.1648 30.2585 31.0556 30.3315C30.8033 30.5 30.4522 30.5 29.75 30.5C29.0478 30.5 28.6967 30.5 28.4444 30.3315C28.3352 30.2585 28.2415 30.1648 28.1685 30.0556C28 29.8033 28 29.4522 28 28.75Z" fill="#B8B220"/>
</svg>
