<svg width="83" height="83" viewBox="0 0 83 83" fill="none" xmlns="http://www.w3.org/2000/svg">
<path d="M3.95238 0H2C0.89543 0 0 0.895432 0 2V3.95238H3.95238V0Z" fill="black"/>
<path d="M7.90476 0H3.95238V3.95238H7.90476V0Z" fill="black"/>
<path d="M11.8571 0H7.90476V3.95238H11.8571V0Z" fill="black"/>
<path d="M15.8095 0H11.8571V3.95238H15.8095V0Z" fill="black"/>
<path d="M19.7619 0H15.8095V3.95238H19.7619V0Z" fill="black"/>
<path d="M23.7143 0H19.7619V3.95238H23.7143V0Z" fill="black"/>
<path d="M27.6667 2C27.6667 0.89543 26.7712 0 25.6667 0H23.7143V3.95238H27.6667V2Z" fill="black"/>
<path d="M35.5714 0H33.5952C32.5038 0 31.619 0.884771 31.619 1.97619C31.619 3.06761 32.5038 3.95238 33.5952 3.95238H35.5714V0Z" fill="black"/>
<path d="M39.5238 2C39.5238 0.89543 38.6284 0 37.5238 0H35.5714V3.95238H39.5238V2Z" fill="black"/>
<path d="M47.4286 0H45.4762C44.3716 0 43.4762 0.895432 43.4762 2V3.95238H47.4286V0Z" fill="black"/>
<path d="M51.381 2C51.381 0.89543 50.4855 0 49.381 0H47.4286V3.95238H51.381V2Z" fill="black"/>
<path d="M59.2857 0H57.3333C56.2288 0 55.3333 0.895432 55.3333 2V3.95238H59.2857V0Z" fill="black"/>
<path d="M63.2381 0H59.2857V3.95238H63.2381V0Z" fill="black"/>
<path d="M67.1905 0H63.2381V3.95238H67.1905V0Z" fill="black"/>
<path d="M71.1429 0H67.1905V3.95238H71.1429V0Z" fill="black"/>
<path d="M75.0952 0H71.1429V3.95238H75.0952V0Z" fill="black"/>
<path d="M79.0476 0H75.0952V3.95238H79.0476V0Z" fill="black"/>
<path d="M83 2C83 0.89543 82.1046 0 81 0H79.0476V3.95238H83V2Z" fill="black"/>
<path d="M3.95238 3.95238H0V7.90476H3.95238V3.95238Z" fill="black"/>
<path d="M27.6667 3.95238H23.7143V7.90476H27.6667V3.95238Z" fill="black"/>
<path d="M39.5238 3.95238H35.5714V7.90476H39.5238V3.95238Z" fill="black"/>
<path d="M43.4762 3.95238H39.5238V7.90476H43.4762L43.4762 3.95238Z" fill="black"/>
<path d="M47.4286 3.95238H43.4762L43.4762 7.90476H47.4286V3.95238Z" fill="black"/>
<path d="M51.381 3.95238H47.4286V7.90476H51.381V3.95238Z" fill="black"/>
<path d="M59.2857 3.95238H55.3333V7.90476H59.2857V3.95238Z" fill="black"/>
<path d="M83 3.95238H79.0476V7.90476H83V3.95238Z" fill="black"/>
<path d="M3.95238 7.90476H0V11.8571H3.95238V7.90476Z" fill="black"/>
<path d="M11.8571 7.90476H9.90476C8.80019 7.90476 7.90476 8.80019 7.90476 9.90476V11.8571H11.8571V7.90476Z" fill="black"/>
<path d="M15.8095 7.90476H11.8571V11.8571H15.8095V7.90476Z" fill="black"/>
<path d="M19.7619 9.90476C19.7619 8.80019 18.8665 7.90476 17.7619 7.90476H15.8095V11.8571H19.7619V9.90476Z" fill="black"/>
<path d="M27.6667 7.90476H23.7143V11.8571H27.6667V7.90476Z" fill="black"/>
<path d="M35.5714 7.90476H33.619C32.5145 7.90476 31.619 8.80019 31.619 9.90476V11.8571H35.5714V7.90476Z" fill="black"/>
<path d="M39.5238 7.90476H35.5714V11.8571H39.5238V7.90476Z" fill="black"/>
<path d="M43.4762 7.90476H39.5238V11.8571H43.4762V7.90476Z" fill="black"/>
<path d="M47.4286 7.90476H43.4762V11.8571H47.4286V7.90476Z" fill="black"/>
<path d="M51.381 7.90476H47.4286V11.8571H49.381C50.4855 11.8571 51.381 10.9617 51.381 9.85714V7.90476Z" fill="black"/>
<path d="M59.2857 7.90476H55.3333V11.8571H59.2857V7.90476Z" fill="black"/>
<path d="M67.1905 7.90476H65.2381C64.1335 7.90476 63.2381 8.80019 63.2381 9.90476V11.8571H67.1905V7.90476Z" fill="black"/>
<path d="M71.1429 7.90476H67.1905V11.8571H71.1429V7.90476Z" fill="black"/>
<path d="M75.0952 9.90476C75.0952 8.80019 74.1998 7.90476 73.0952 7.90476H71.1429V11.8571H75.0952V9.90476Z" fill="black"/>
<path d="M83 7.90476H79.0476V11.8571H83V7.90476Z" fill="black"/>
<path d="M3.95238 11.8571H0V15.8095H3.95238V11.8571Z" fill="black"/>
<path d="M11.8571 11.8571H7.90476V15.8095H11.8571V11.8571Z" fill="black"/>
<path d="M15.8095 11.8571H11.8571V15.8095H15.8095V11.8571Z" fill="black"/>
<path d="M19.7619 11.8571H15.8095V15.8095H19.7619V11.8571Z" fill="black"/>
<path d="M27.6667 11.8571H23.7143V15.8095H27.6667V11.8571Z" fill="black"/>
<path d="M35.5714 11.8571H31.619V13.8333C31.619 14.9248 32.5038 15.8095 33.5952 15.8095C34.6867 15.8095 35.5714 14.9248 35.5714 13.8333V11.8571Z" fill="black"/>
<path d="M43.4762 11.8571H39.5238V13.8095C39.5238 14.9141 40.4192 15.8095 41.5238 15.8095H43.4762V11.8571Z" fill="black"/>
<path d="M47.4286 11.8571H43.4762V15.8095H47.4286V11.8571Z" fill="black"/>
<path d="M59.2857 11.8571H55.3333V15.8095H59.2857V11.8571Z" fill="black"/>
<path d="M67.1905 11.8571H63.2381V15.8095H67.1905V11.8571Z" fill="black"/>
<path d="M71.1429 11.8571H67.1905V15.8095H71.1429V11.8571Z" fill="black"/>
<path d="M75.0952 11.8571H71.1429V15.8095H75.0952V11.8571Z" fill="black"/>
<path d="M83 11.8571H79.0476V15.8095H83V11.8571Z" fill="black"/>
<path d="M3.95238 15.8095H0V19.7619H3.95238V15.8095Z" fill="black"/>
<path d="M11.8571 15.8095H7.90476V17.7619C7.90476 18.8665 8.80019 19.7619 9.90476 19.7619H11.8571V15.8095Z" fill="black"/>
<path d="M15.8095 15.8095H11.8571V19.7619H15.8095V15.8095Z" fill="black"/>
<path d="M19.7619 15.8095H15.8095V19.7619H17.7619C18.8665 19.7619 19.7619 18.8665 19.7619 17.7619V15.8095Z" fill="black"/>
<path d="M27.6667 15.8095H23.7143V19.7619H27.6667V15.8095Z" fill="black"/>
<path d="M47.4286 15.8095H43.4762L43.4762 19.7619H47.4286V15.8095Z" fill="black"/>
<path d="M59.2857 15.8095H55.3333V19.7619H59.2857V15.8095Z" fill="black"/>
<path d="M67.1905 15.8095H63.2381V17.7619C63.2381 18.8665 64.1335 19.7619 65.2381 19.7619H67.1905V15.8095Z" fill="black"/>
<path d="M71.1429 15.8095H67.1905V19.7619H71.1429V15.8095Z" fill="black"/>
<path d="M75.0952 15.8095H71.1429V19.7619H73.0952C74.1998 19.7619 75.0952 18.8665 75.0952 17.7619V15.8095Z" fill="black"/>
<path d="M83 15.8095H79.0476V19.7619H83V15.8095Z" fill="black"/>
<path d="M3.95238 19.7619H0V23.7143H3.95238V19.7619Z" fill="black"/>
<path d="M27.6667 19.7619H23.7143V23.7143H27.6667V19.7619Z" fill="black"/>
<path d="M35.5714 21.7381C35.5714 20.6467 34.6867 19.7619 33.5952 19.7619C32.5038 19.7619 31.619 20.6467 31.619 21.7381V23.7143H35.5714V21.7381Z" fill="black"/>
<path d="M43.4762 19.7619H41.5238C40.4192 19.7619 39.5238 20.6573 39.5238 21.7619V23.7143H43.4762L43.4762 19.7619Z" fill="black"/>
<path d="M47.4286 19.7619H43.4762L43.4762 23.7143H47.4286V19.7619Z" fill="black"/>
<path d="M51.381 21.7619C51.381 20.6573 50.4855 19.7619 49.381 19.7619H47.4286V23.7143H51.381V21.7619Z" fill="black"/>
<path d="M59.2857 19.7619H55.3333V23.7143H59.2857V19.7619Z" fill="black"/>
<path d="M83 19.7619H79.0476V23.7143H83V19.7619Z" fill="black"/>
<path d="M3.95238 23.7143H0V25.6667C0 26.7712 0.895432 27.6667 2 27.6667H3.95238V23.7143Z" fill="black"/>
<path d="M7.90476 23.7143H3.95238V27.6667H7.90476V23.7143Z" fill="black"/>
<path d="M11.8571 23.7143H7.90476V27.6667H11.8571V23.7143Z" fill="black"/>
<path d="M15.8095 23.7143H11.8571V27.6667H15.8095V23.7143Z" fill="black"/>
<path d="M19.7619 23.7143H15.8095V27.6667H19.7619V23.7143Z" fill="black"/>
<path d="M23.7143 23.7143H19.7619V27.6667H23.7143V23.7143Z" fill="black"/>
<path d="M27.6667 23.7143H23.7143V27.6667H25.6667C26.7712 27.6667 27.6667 26.7712 27.6667 25.6667V23.7143Z" fill="black"/>
<path d="M35.5714 23.7143H31.619V27.6667H35.5714V23.7143Z" fill="black"/>
<path d="M43.4762 23.7143H39.5238V27.6667H43.4762V23.7143Z" fill="black"/>
<path d="M51.381 23.7143H47.4286V27.6667H51.381V23.7143Z" fill="black"/>
<path d="M59.2857 23.7143H55.3333V25.6667C55.3333 26.7712 56.2288 27.6667 57.3333 27.6667H59.2857V23.7143Z" fill="black"/>
<path d="M63.2381 23.7143H59.2857V27.6667H63.2381V23.7143Z" fill="black"/>
<path d="M67.1905 23.7143H63.2381V27.6667H67.1905V23.7143Z" fill="black"/>
<path d="M71.1429 23.7143H67.1905V27.6667H71.1429V23.7143Z" fill="black"/>
<path d="M75.0952 23.7143H71.1429V27.6667H75.0952V23.7143Z" fill="black"/>
<path d="M79.0476 23.7143H75.0952V27.6667H79.0476V23.7143Z" fill="black"/>
<path d="M83 23.7143H79.0476V27.6667H81C82.1046 27.6667 83 26.7712 83 25.6667V23.7143Z" fill="black"/>
<path d="M35.5714 27.6667H31.619V31.619H33.5714C34.676 31.619 35.5714 30.7236 35.5714 29.619V27.6667Z" fill="black"/>
<path d="M43.4762 27.6667H39.5238V29.619C39.5238 30.7236 40.4192 31.619 41.5238 31.619H43.4762V27.6667Z" fill="black"/>
<path d="M51.381 27.6667H47.4286V31.619H51.381V27.6667Z" fill="black"/>
<path d="M3.95238 31.619H2C0.89543 31.619 0 32.5145 0 33.619V35.5714H3.95238V31.619Z" fill="black"/>
<path d="M7.90476 33.619C7.90476 32.5145 7.00933 31.619 5.90476 31.619H3.95238V35.5714H7.90476V33.619Z" fill="black"/>
<path d="M15.8095 33.5952C15.8095 32.5038 14.9248 31.619 13.8333 31.619C12.7419 31.619 11.8571 32.5038 11.8571 33.5952V35.5714H15.8095V33.5952Z" fill="black"/>
<path d="M27.6667 31.619H25.6905C24.5991 31.619 23.7143 32.5038 23.7143 33.5952C23.7143 34.6867 24.5991 35.5714 25.6905 35.5714H27.6667V31.619Z" fill="black"/>
<path d="M31.619 31.619L27.6667 31.619V35.5714H31.619L31.619 31.619Z" fill="black"/>
<path d="M47.4286 31.619H43.4762L43.4762 35.5714H47.4286V31.619Z" fill="black"/>
<path d="M55.3333 31.619L51.381 31.619V35.5714H55.3333V31.619Z" fill="black"/>
<path d="M59.2857 31.619H55.3333V35.5714H59.2857V31.619Z" fill="black"/>
<path d="M63.2381 33.619C63.2381 32.5145 62.3427 31.619 61.2381 31.619H59.2857V35.5714H63.2381V33.619Z" fill="black"/>
<path d="M71.1429 31.619H69.1667C68.0752 31.619 67.1905 32.5038 67.1905 33.5952C67.1905 34.6867 68.0752 35.5714 69.1667 35.5714H71.1429V31.619Z" fill="black"/>
<path d="M75.0952 33.5952C75.0952 32.5038 74.2105 31.619 73.119 31.619H71.1429V35.5714H73.119C74.2105 35.5714 75.0952 34.6867 75.0952 33.5952Z" fill="black"/>
<path d="M83 33.5952C83 32.5038 82.1152 31.619 81.0238 31.619C79.9324 31.619 79.0476 32.5038 79.0476 33.5952C79.0476 34.6867 79.9324 35.5714 81.0238 35.5714C82.1152 35.5714 83 34.6867 83 33.5952Z" fill="black"/>
<path d="M3.95238 35.5714H0V37.5238C0 38.6284 0.895432 39.5238 2 39.5238H3.95238V35.5714Z" fill="black"/>
<path d="M7.90476 35.5714H3.95238V39.5238H7.90476V35.5714Z" fill="black"/>
<path d="M11.8571 35.5714H7.90476V39.5238H11.8571V35.5714Z" fill="black"/>
<path d="M15.8095 35.5714H11.8571V39.5238H15.8095V35.5714Z" fill="black"/>
<path d="M19.7619 37.5714C19.7619 36.4669 18.8665 35.5714 17.7619 35.5714H15.8095V39.5238H19.7619V37.5714Z" fill="black"/>
<path d="M31.619 35.5714H27.6667V39.5238H31.619V35.5714Z" fill="black"/>
<path d="M35.5714 35.5714H31.619V39.5238H35.5714V35.5714Z" fill="black"/>
<path d="M39.5238 37.5714C39.5238 36.4669 38.6284 35.5714 37.5238 35.5714H35.5714V39.5238H39.5238V37.5714Z" fill="black"/>
<path d="M47.4286 35.5714H43.4762V39.5238H47.4286V35.5714Z" fill="black"/>
<path d="M55.3333 35.5714H51.381V39.5238H55.3333V35.5714Z" fill="black"/>
<path d="M63.2381 35.5714H59.2857V39.5238H63.2381V35.5714Z" fill="black"/>
<path d="M11.8571 39.5238H7.90476V41.4762C7.90476 42.5808 8.80019 43.4762 9.90476 43.4762H11.8571V39.5238Z" fill="black"/>
<path d="M15.8095 39.5238H11.8571V43.4762H13.8095C14.9141 43.4762 15.8095 42.5808 15.8095 41.4762V39.5238Z" fill="black"/>
<path d="M23.7143 39.5238L19.7619 39.5238V41.4762C19.7619 42.5808 20.6573 43.4762 21.7619 43.4762H23.7143V39.5238Z" fill="black"/>
<path d="M27.6667 39.5238L23.7143 39.5238V43.4762H25.6667C26.7712 43.4762 27.6667 42.5808 27.6667 41.4762V39.5238Z" fill="black"/>
<path d="M35.5714 39.5238H31.619L31.619 41.4762C31.619 42.5808 32.5145 43.4762 33.619 43.4762H35.5714V39.5238Z" fill="black"/>
<path d="M39.5238 39.5238H35.5714V43.4762H37.5238C38.6284 43.4762 39.5238 42.5808 39.5238 41.4762V39.5238Z" fill="black"/>
<path d="M47.4286 39.5238H43.4762V41.4762C43.4762 42.5808 44.3716 43.4762 45.4762 43.4762H47.4286V39.5238Z" fill="black"/>
<path d="M55.3333 39.5238H51.381V43.4762H53.3333C54.4379 43.4762 55.3333 42.5808 55.3333 41.4762V39.5238Z" fill="black"/>
<path d="M63.2381 39.5238H59.2857V43.4762H63.2381V39.5238Z" fill="black"/>
<path d="M71.1429 39.5238H69.1905C68.0859 39.5238 67.1905 40.4192 67.1905 41.5238V43.4762H71.1429V39.5238Z" fill="black"/>
<path d="M75.0952 41.5238C75.0952 40.4192 74.1998 39.5238 73.0952 39.5238H71.1429V43.4762H75.0952V41.5238Z" fill="black"/>
<path d="M3.95238 45.4524C3.95238 44.361 3.06761 43.4762 1.97619 43.4762C0.884771 43.4762 0 44.361 0 45.4524C0 46.5438 0.884771 47.4286 1.97619 47.4286C3.06761 47.4286 3.95238 46.5438 3.95238 45.4524Z" fill="black"/>
<path d="M51.381 43.4762H47.4286V47.4286H49.381C50.4855 47.4286 51.381 46.5331 51.381 45.4286V43.4762Z" fill="black"/>
<path d="M63.2381 43.4762H59.2857V47.4286H63.2381V43.4762Z" fill="black"/>
<path d="M67.1905 43.4762H63.2381V47.4286H65.1905C66.295 47.4286 67.1905 46.5331 67.1905 45.4286V43.4762Z" fill="black"/>
<path d="M75.0952 43.4762H71.1429V45.4286C71.1429 46.5331 72.0383 47.4286 73.1429 47.4286H75.0952V43.4762Z" fill="black"/>
<path d="M79.0476 43.4762L75.0952 43.4762V47.4286H79.0476V43.4762Z" fill="black"/>
<path d="M83 45.4762C83 44.3716 82.1046 43.4762 81 43.4762H79.0476V47.4286H83V45.4762Z" fill="black"/>
<path d="M15.8095 49.4048C15.8095 48.3133 14.9248 47.4286 13.8333 47.4286C12.7419 47.4286 11.8571 48.3133 11.8571 49.4048C11.8571 50.4962 12.7419 51.381 13.8333 51.381C14.9248 51.381 15.8095 50.4962 15.8095 49.4048Z" fill="black"/>
<path d="M27.6667 49.4048C27.6667 48.3133 26.7819 47.4286 25.6905 47.4286C24.5991 47.4286 23.7143 48.3133 23.7143 49.4048C23.7143 50.4962 24.5991 51.381 25.6905 51.381C26.7819 51.381 27.6667 50.4962 27.6667 49.4048Z" fill="black"/>
<path d="M39.5238 47.4286H37.5476C36.4562 47.4286 35.5714 48.3133 35.5714 49.4048C35.5714 50.4962 36.4562 51.381 37.5476 51.381H39.5238V47.4286Z" fill="black"/>
<path d="M43.4762 47.4286H39.5238V51.381H43.4762V47.4286Z" fill="black"/>
<path d="M47.4286 47.4286H43.4762V51.381H47.4286V47.4286Z" fill="black"/>
<path d="M63.2381 47.4286H59.2857V51.381H63.2381V47.4286Z" fill="black"/>
<path d="M79.0476 47.4286H75.0952V51.381H79.0476V47.4286Z" fill="black"/>
<path d="M83 47.4286H79.0476V51.381H81C82.1046 51.381 83 50.4855 83 49.381V47.4286Z" fill="black"/>
<path d="M43.4762 51.381H39.5238L39.5238 55.3333H43.4762V51.381Z" fill="black"/>
<path d="M47.4286 51.381H43.4762V55.3333H47.4286V51.381Z" fill="black"/>
<path d="M51.381 51.381H47.4286V55.3333H51.381V51.381Z" fill="black"/>
<path d="M55.3333 51.381H51.381V55.3333H55.3333V51.381Z" fill="black"/>
<path d="M59.2857 51.381H55.3333V55.3333H59.2857V51.381Z" fill="black"/>
<path d="M63.2381 51.381H59.2857V55.3333H63.2381V51.381Z" fill="black"/>
<path d="M71.1429 51.381H69.1905C68.0859 51.381 67.1905 52.2764 67.1905 53.381V55.3333H71.1429V51.381Z" fill="black"/>
<path d="M75.0952 51.381H71.1429V55.3333H75.0952V51.381Z" fill="black"/>
<path d="M3.95238 55.3333H2C0.89543 55.3333 0 56.2288 0 57.3333V59.2857H3.95238V55.3333Z" fill="black"/>
<path d="M7.90476 55.3333H3.95238V59.2857H7.90476V55.3333Z" fill="black"/>
<path d="M11.8571 55.3333H7.90476V59.2857H11.8571V55.3333Z" fill="black"/>
<path d="M15.8095 55.3333H11.8571V59.2857H15.8095V55.3333Z" fill="black"/>
<path d="M19.7619 55.3333H15.8095V59.2857H19.7619V55.3333Z" fill="black"/>
<path d="M23.7143 55.3333H19.7619V59.2857H23.7143V55.3333Z" fill="black"/>
<path d="M27.6667 57.3333C27.6667 56.2288 26.7712 55.3333 25.6667 55.3333H23.7143V59.2857H27.6667V57.3333Z" fill="black"/>
<path d="M35.5714 57.3095C35.5714 56.2181 34.6867 55.3333 33.5952 55.3333C32.5038 55.3333 31.619 56.2181 31.619 57.3095C31.619 58.4009 32.5038 59.2857 33.5952 59.2857H35.5714V57.3095Z" fill="black"/>
<path d="M43.4762 55.3333H39.5238V59.2857H43.4762V55.3333Z" fill="black"/>
<path d="M59.2857 55.3333H55.3333V57.2857C55.3333 58.3903 56.2288 59.2857 57.3333 59.2857H59.2857V55.3333Z" fill="black"/>
<path d="M63.2381 55.3333H59.2857V59.2857H63.2381V55.3333Z" fill="black"/>
<path d="M67.1905 55.3333H63.2381V59.2857H67.1905V55.3333Z" fill="black"/>
<path d="M79.0476 57.3333C79.0476 56.2288 78.1522 55.3333 77.0476 55.3333H75.0952V59.2857H79.0476V57.3333Z" fill="black"/>
<path d="M3.95238 59.2857H0V63.2381H3.95238V59.2857Z" fill="black"/>
<path d="M27.6667 59.2857H23.7143V63.2381H27.6667V59.2857Z" fill="black"/>
<path d="M39.5238 59.2857H35.5714V61.2381C35.5714 62.3427 36.4669 63.2381 37.5714 63.2381H39.5238L39.5238 59.2857Z" fill="black"/>
<path d="M43.4762 59.2857H39.5238L39.5238 63.2381H43.4762V59.2857Z" fill="black"/>
<path d="M63.2381 59.2857H59.2857V63.2381H63.2381V59.2857Z" fill="black"/>
<path d="M67.1905 59.2857H63.2381V63.2381H65.1905C66.295 63.2381 67.1905 62.3427 67.1905 61.2381V59.2857Z" fill="black"/>
<path d="M79.0476 59.2857H75.0952V63.2381H79.0476V59.2857Z" fill="black"/>
<path d="M3.95238 63.2381H0V67.1905H3.95238V63.2381Z" fill="black"/>
<path d="M11.8571 63.2381H9.90476C8.80019 63.2381 7.90476 64.1335 7.90476 65.2381V67.1905H11.8571V63.2381Z" fill="black"/>
<path d="M15.8095 63.2381H11.8571V67.1905H15.8095V63.2381Z" fill="black"/>
<path d="M19.7619 65.2381C19.7619 64.1335 18.8665 63.2381 17.7619 63.2381H15.8095V67.1905H19.7619V65.2381Z" fill="black"/>
<path d="M27.6667 63.2381H23.7143V67.1905H27.6667V63.2381Z" fill="black"/>
<path d="M43.4762 63.2381H39.5238V65.1905C39.5238 66.295 40.4192 67.1905 41.5238 67.1905H43.4762V63.2381Z" fill="black"/>
<path d="M51.381 65.2143C51.381 64.1229 50.4962 63.2381 49.4048 63.2381C48.3133 63.2381 47.4286 64.1229 47.4286 65.2143V67.1905H49.4048C50.4962 67.1905 51.381 66.3057 51.381 65.2143Z" fill="black"/>
<path d="M59.2857 63.2381H57.3095C56.2181 63.2381 55.3333 64.1229 55.3333 65.2143C55.3333 66.3057 56.2181 67.1905 57.3095 67.1905H59.2857V63.2381Z" fill="black"/>
<path d="M79.0476 63.2381H75.0952V67.1905H79.0476V63.2381Z" fill="black"/>
<path d="M83 65.2381C83 64.1335 82.1046 63.2381 81 63.2381H79.0476V67.1905H83V65.2381Z" fill="black"/>
<path d="M3.95238 67.1905H0V71.1429H3.95238V67.1905Z" fill="black"/>
<path d="M11.8571 67.1905H7.90476V71.1429H11.8571V67.1905Z" fill="black"/>
<path d="M15.8095 67.1905H11.8571V71.1429H15.8095V67.1905Z" fill="black"/>
<path d="M19.7619 67.1905H15.8095V71.1429H19.7619V67.1905Z" fill="black"/>
<path d="M27.6667 67.1905H23.7143V71.1429H27.6667V67.1905Z" fill="black"/>
<path d="M35.5714 69.1667C35.5714 68.0752 34.6867 67.1905 33.5952 67.1905C32.5038 67.1905 31.619 68.0752 31.619 69.1667C31.619 70.2581 32.5038 71.1429 33.5952 71.1429H35.5714V69.1667Z" fill="black"/>
<path d="M47.4286 67.1905H43.4762L43.4762 71.1429H45.4286C46.5331 71.1429 47.4286 70.2474 47.4286 69.1429V67.1905Z" fill="black"/>
<path d="M63.2381 67.1905H59.2857V71.1429H63.2381V67.1905Z" fill="black"/>
<path d="M67.1905 69.1905C67.1905 68.0859 66.295 67.1905 65.1905 67.1905H63.2381V71.1429H67.1905V69.1905Z" fill="black"/>
<path d="M75.0952 67.1905H73.1429C72.0383 67.1905 71.1429 68.0859 71.1429 69.1905V71.1429H75.0952V67.1905Z" fill="black"/>
<path d="M83 67.1905H79.0476V71.1429H83V67.1905Z" fill="black"/>
<path d="M3.95238 71.1429H0V75.0952H3.95238V71.1429Z" fill="black"/>
<path d="M11.8571 71.1429H7.90476V73.0952C7.90476 74.1998 8.80019 75.0952 9.90476 75.0952H11.8571V71.1429Z" fill="black"/>
<path d="M15.8095 71.1429H11.8571V75.0952H15.8095V71.1429Z" fill="black"/>
<path d="M19.7619 71.1429H15.8095V75.0952H17.7619C18.8665 75.0952 19.7619 74.1998 19.7619 73.0952V71.1429Z" fill="black"/>
<path d="M27.6667 71.1429H23.7143V75.0952H27.6667V71.1429Z" fill="black"/>
<path d="M39.5238 71.1429H35.5714V75.0952H39.5238V71.1429Z" fill="black"/>
<path d="M43.4762 71.1429H39.5238V75.0952H43.4762L43.4762 71.1429Z" fill="black"/>
<path d="M63.2381 71.1429H59.2857V73.0952C59.2857 74.1998 60.1811 75.0952 61.2857 75.0952H63.2381V71.1429Z" fill="black"/>
<path d="M67.1905 71.1429H63.2381V75.0952H67.1905V71.1429Z" fill="black"/>
<path d="M75.0952 71.1429H71.1429V75.0952H73.0952C74.1998 75.0952 75.0952 74.1998 75.0952 73.0952V71.1429Z" fill="black"/>
<path d="M83 71.1429H79.0476V73.119C79.0476 74.2105 79.9324 75.0952 81.0238 75.0952C82.1152 75.0952 83 74.2105 83 73.119V71.1429Z" fill="black"/>
<path d="M3.95238 75.0952H0V79.0476H3.95238V75.0952Z" fill="black"/>
<path d="M27.6667 75.0952H23.7143V79.0476H27.6667V75.0952Z" fill="black"/>
<path d="M35.5714 75.0952H33.619C32.5145 75.0952 31.619 75.9907 31.619 77.0952V79.0476H35.5714V75.0952Z" fill="black"/>
<path d="M39.5238 75.0952H35.5714V79.0476H39.5238V75.0952Z" fill="black"/>
<path d="M43.4762 75.0952H39.5238V79.0476H43.4762V75.0952Z" fill="black"/>
<path d="M67.1905 75.0952H63.2381V79.0476H67.1905V75.0952Z" fill="black"/>
<path d="M71.1429 75.0952H67.1905V79.0476H69.1429C70.2474 79.0476 71.1429 78.1522 71.1429 77.0476V75.0952Z" fill="black"/>
<path d="M3.95238 79.0476H0V81C0 82.1046 0.895432 83 2 83H3.95238V79.0476Z" fill="black"/>
<path d="M7.90476 79.0476H3.95238V83H7.90476V79.0476Z" fill="black"/>
<path d="M11.8571 79.0476H7.90476V83H11.8571V79.0476Z" fill="black"/>
<path d="M15.8095 79.0476H11.8571V83H15.8095V79.0476Z" fill="black"/>
<path d="M19.7619 79.0476H15.8095V83H19.7619V79.0476Z" fill="black"/>
<path d="M23.7143 79.0476H19.7619V83H23.7143V79.0476Z" fill="black"/>
<path d="M27.6667 79.0476H23.7143V83H25.6667C26.7712 83 27.6667 82.1046 27.6667 81V79.0476Z" fill="black"/>
<path d="M35.5714 79.0476H31.619V81C31.619 82.1046 32.5145 83 33.619 83H35.5714V79.0476Z" fill="black"/>
<path d="M39.5238 79.0476H35.5714V83H39.5238V79.0476Z" fill="black"/>
<path d="M43.4762 79.0476H39.5238V83H41.4762C42.5808 83 43.4762 82.1046 43.4762 81V79.0476Z" fill="black"/>
<path d="M63.2381 79.0476H61.2619C60.1705 79.0476 59.2857 79.9324 59.2857 81.0238C59.2857 82.1152 60.1705 83 61.2619 83H63.2381V79.0476Z" fill="black"/>
<path d="M67.1905 79.0476H63.2381V83H65.1905C66.295 83 67.1905 82.1046 67.1905 81V79.0476Z" fill="black"/>
<path d="M79.0476 81.0238C79.0476 79.9324 78.1628 79.0476 77.0714 79.0476C75.98 79.0476 75.0952 79.9324 75.0952 81.0238C75.0952 82.1152 75.98 83 77.0714 83C78.1628 83 79.0476 82.1152 79.0476 81.0238Z" fill="black"/>
</svg>
