<svg width="72" height="46" viewBox="0 0 72 46" fill="none" xmlns="http://www.w3.org/2000/svg">
<g clip-path="url(#clip0_4_3056)">
<path d="M3.8529 2.22858C3.54197 11.4612 6.96214 16.3959 14.1134 17.4306C19.2437 18.1469 23.5189 15.998 27.1722 12.3367C28.5714 10.9837 29.8151 8.75511 31.3697 8.43674C33.0021 8.19796 34.0903 10.8245 35.5672 12.0184C41.8634 16.7939 49.0924 17.9878 56.6323 17.2714C62.3844 16.7143 67.5147 14.7245 72.1785 11.1429C68.3697 17.351 62.7731 20.7735 56.0105 22.2857C49.2479 23.798 42.563 23.4 36.189 20.5347C34.2458 19.6592 33.5462 20.7735 32.6134 21.8082C31.6806 22.9225 31.0588 22.9225 30.126 21.8878C28.8823 20.4551 27.4831 19.2612 26.3172 17.8286C25.1512 16.3959 24.5294 16.4755 23.2079 17.749C17.8445 23.0816 11.5483 24.4347 5.79617 21.649C1.98735 19.898 0.0440732 16.5551 -0.422313 12.4163C-0.8887 8.43674 0.976846 5.25307 3.8529 2.22858Z" fill="white"/>
<path d="M13.1807 8.35714C19.0882 1.27347 26.3172 -1.27347 35.0231 0.477552C39.9979 1.51225 44.8172 3.50204 49.8697 4.05918C53.0567 4.45714 56.0882 4.29796 58.8088 2.46735C59.9748 1.67143 60.6744 1.9102 61.4517 2.9449C62.3067 4.05918 63.2395 5.09388 64.1723 5.96939C65.3382 7.00408 65.105 7.87959 64.3277 9.07347C61.4517 13.2122 61.4517 13.2918 58.187 9.55102C57.021 8.19796 56.0882 7.8 54.3781 8.59592C50.2584 10.5061 45.9055 10.0286 41.6302 8.91429C38.1323 8.03878 34.7899 7.00408 31.292 6.12857C25.9286 4.77551 20.7983 5.33265 15.9013 8.03878C15.0462 8.51633 14.4244 8.83469 13.1807 8.35714Z" fill="white"/>
<path d="M28.4937 31.2796C28.0273 33.0306 27.5609 34.7816 26.939 36.5326C26.6281 37.4877 26.7836 38.9204 25.3067 38.9204C23.6743 39 23.9075 37.5673 23.6743 36.6122C23.2079 35.0204 22.8193 33.4285 21.8865 31.8367C21.8865 33.7469 21.8865 35.5775 21.8865 37.4877C21.8865 38.4428 21.6533 39 20.5651 38.9204C19.4768 38.9204 19.6323 38.1245 19.6323 37.4877C19.6323 34.702 19.6323 31.9163 19.6323 29.1306C19.6323 28.2551 19.5546 27.2204 20.876 27.3796C21.8865 27.4592 23.0525 26.9816 23.5189 28.4938C23.9075 29.8469 24.2184 31.2 24.6071 32.4734C24.7626 32.8714 24.6848 33.5081 25.3067 33.5877C26.0063 33.6673 26.0063 33.0306 26.1617 32.6326C26.5504 31.5183 26.939 30.4041 27.1722 29.2102C27.4832 27.6183 28.4937 27.3 29.8928 27.3796C31.6806 27.3796 31.2142 28.653 31.2142 29.6877C31.292 32.0755 31.292 34.4632 31.2142 36.851C31.2142 37.7265 31.7584 39 30.126 39.0796C28.2605 39 29.0378 37.4877 28.96 36.6122C28.8823 34.8612 28.96 33.1102 28.96 31.3592C28.8046 31.2796 28.6491 31.2796 28.4937 31.2796Z" fill="white"/>
<path d="M70.2353 31.2796C69.6134 33.349 68.9916 35.3388 68.3697 37.4081C68.1365 38.2041 67.9811 38.9204 66.9706 39C65.7269 39.0796 65.6491 38.1245 65.4159 37.249C64.9495 35.4979 64.4832 33.6673 63.5504 31.9163C63.5504 33.7469 63.5504 35.4979 63.5504 37.3286C63.5504 38.1245 63.5504 38.9204 62.3844 38.9204C61.1407 39 61.3739 38.0449 61.3739 37.3286C61.3739 34.5428 61.3739 31.7571 61.3739 29.051C61.3739 28.2551 61.2185 27.3 62.4621 27.3796C63.5504 27.4592 64.8718 26.8224 65.3382 28.5735C65.8823 30.5632 66.4264 32.553 67.126 35.3388C67.9033 32.7918 68.6029 31.0408 68.9916 29.2102C69.3802 27.6183 70.2353 27.3 71.7121 27.3796C73.5777 27.4592 73.0336 28.7326 73.0336 29.6877C73.1113 32.2347 73.0336 34.8612 73.0336 37.4081C73.0336 38.2041 73.1113 39 71.9453 39C70.8571 39 70.7016 38.3632 70.7016 37.4877C70.7016 35.4183 70.7016 33.4286 70.7016 31.3592C70.4684 31.2796 70.313 31.2796 70.2353 31.2796Z" fill="white"/>
<path d="M5.32989 32.4734C6.18493 30.802 6.88451 29.6081 7.42863 28.3347C7.89502 27.3 8.82779 27.0612 9.6051 27.4592C10.7711 28.0163 9.68283 28.7326 9.37191 29.3694C8.05048 32.0755 5.95174 34.3836 6.41813 37.8061C6.57359 38.6816 6.02947 39 5.17443 39C4.31939 39 3.853 38.6816 4.00846 37.8061C4.47485 34.5428 2.6093 32.2347 1.28787 29.6081C0.976949 29.051 -0.34448 28.1755 1.05468 27.4592C1.90972 26.9816 2.92023 27.3796 3.38661 28.4938C3.93073 29.7673 4.55258 30.8816 5.32989 32.4734Z" fill="white"/>
<path d="M73.5 20.8531C72.2563 21.7286 71.7122 24.1959 69.6912 21.9673C69.1471 21.4102 68.6807 22.1265 68.292 22.5245C67.0483 23.7184 66.7374 22.2061 66.0378 21.8082C65.105 21.251 65.2605 20.6143 65.9601 19.9776C66.6597 19.4204 67.1261 18.1469 68.292 19.1816C68.6807 19.5 69.1471 20.2959 69.6912 19.7388C71.7122 17.5102 72.334 19.898 73.5 20.8531Z" fill="white"/>
<path d="M51.1135 37.1694C50.1807 34.3837 49.1702 31.5979 48.3152 28.8122C47.9265 27.6979 47.3046 27.3796 46.2164 27.3796C44.9727 27.3796 44.5063 27.9367 44.1954 28.9714C43.3404 31.6775 42.4853 34.3837 41.6303 37.0898C41.4748 37.6469 40.6975 38.4428 41.6303 38.8408C42.4076 39.1592 43.4181 39.0796 43.729 37.9653C44.0399 36.5326 44.8173 35.9755 46.2164 36.2939C47.6156 36.0551 48.6261 36.3735 49.0147 38.0449C49.2479 39.2388 50.3362 39.1592 51.1135 38.9204C51.9685 38.5224 51.2689 37.7265 51.1135 37.1694ZM47.3046 33.9857C47.1492 34.6224 45.75 34.3041 44.7395 33.9857C45.1282 32.7122 45.5168 31.3592 45.9832 29.8469C46.9937 31.2 47.6933 32.553 47.3046 33.9857Z" fill="white"/>
</g>
<defs>
<clipPath id="clip0_4_3056">
<rect width="72" height="46" fill="white"/>
</clipPath>
</defs>
</svg>
