<svg width="24" height="25" viewBox="0 0 24 25" fill="none" xmlns="http://www.w3.org/2000/svg">
<path d="M12.02 3.41003C8.70997 3.41003 6.01997 6.10003 6.01997 9.41003V12.3C6.01997 12.91 5.75997 13.84 5.44997 14.36L4.29997 16.27C3.58997 17.45 4.07997 18.76 5.37997 19.2C9.68997 20.64 14.34 20.64 18.65 19.2C19.86 18.8 20.39 17.37 19.73 16.27L18.58 14.36C18.28 13.84 18.02 12.91 18.02 12.3V9.41003C18.02 6.11003 15.32 3.41003 12.02 3.41003Z" stroke="white" stroke-width="1.5" stroke-miterlimit="10" stroke-linecap="round"/>
<path d="M13.87 3.69994C13.56 3.60994 13.24 3.53994 12.91 3.49994C11.95 3.37994 11.03 3.44994 10.17 3.69994C10.46 2.95994 11.18 2.43994 12.02 2.43994C12.86 2.43994 13.58 2.95994 13.87 3.69994Z" stroke="white" stroke-width="1.5" stroke-miterlimit="10" stroke-linecap="round" stroke-linejoin="round"/>
<path d="M15.02 19.5601C15.02 21.2101 13.67 22.5601 12.02 22.5601C11.2 22.5601 10.44 22.2201 9.90002 21.6801C9.36002 21.1401 9.02002 20.3801 9.02002 19.5601" stroke="white" stroke-width="1.5" stroke-miterlimit="10"/>
</svg>
