<svg width="19" height="21" viewBox="0 0 19 21" fill="none" xmlns="http://www.w3.org/2000/svg">
<path d="M7.125 4.87502C6.79708 4.87502 6.53125 5.15484 6.53125 5.50002C6.53125 5.8452 6.79708 6.12502 7.125 6.12502H11.875C12.2029 6.12502 12.4688 5.8452 12.4688 5.50002C12.4688 5.15484 12.2029 4.87502 11.875 4.87502H7.125Z" fill="#646D7E"/>
<path fill-rule="evenodd" clip-rule="evenodd" d="M9.45448 1.54169C7.8137 1.54167 6.52108 1.54167 5.51101 1.68616C4.47388 1.83453 3.64649 2.14559 2.99633 2.83738C2.34705 3.52824 2.05589 4.40587 1.91686 5.5062C1.78123 6.57961 1.78124 7.95387 1.78125 9.70091V13.9492C1.78124 15.2055 1.78123 16.2002 1.85726 16.949C1.93239 17.6891 2.09354 18.3567 2.55379 18.8032C2.92304 19.1614 3.39 19.3872 3.88839 19.4473C4.5118 19.5223 5.09389 19.209 5.66729 18.7815C6.24754 18.3488 6.95143 17.6935 7.83951 16.8666L7.86841 16.8397C8.28013 16.4564 8.55888 16.1977 8.79145 16.0187C9.01622 15.8457 9.15346 15.7831 9.26913 15.7586C9.42156 15.7263 9.57844 15.7263 9.73087 15.7586C9.84654 15.7831 9.98378 15.8457 10.2085 16.0187C10.4411 16.1977 10.7199 16.4564 11.1316 16.8397L11.1605 16.8667C12.0486 17.6935 12.7525 18.3488 13.3327 18.7815C13.9061 19.209 14.4882 19.5223 15.1116 19.4473C15.61 19.3872 16.077 19.1614 16.4462 18.8032C16.9065 18.3567 17.0676 17.6891 17.1427 16.949C17.2188 16.2002 17.2188 15.2055 17.2188 13.9492V9.70089C17.2188 7.95387 17.2188 6.5796 17.0831 5.5062C16.9441 4.40587 16.653 3.52824 16.0037 2.83738C15.3535 2.14559 14.5261 1.83453 13.489 1.68616C12.4789 1.54167 11.1863 1.54167 9.54552 1.54169H9.45448ZM3.84053 3.71649C4.23381 3.29803 4.76782 3.05397 5.67093 2.92478C6.59177 2.79304 7.80366 2.79169 9.5 2.79169C11.1963 2.79169 12.4082 2.79304 13.3291 2.92478C14.2322 3.05397 14.7662 3.29803 15.1595 3.71649C15.5536 4.13588 15.7842 4.70685 15.906 5.671C16.03 6.65245 16.0312 7.94355 16.0312 9.74795V13.9091C16.0312 15.2144 16.0304 16.1418 15.962 16.8162C15.8918 17.5073 15.7624 17.7667 15.6415 17.884C15.4564 18.0636 15.2236 18.1756 14.9766 18.2054C14.8186 18.2244 14.5536 18.16 14.0191 17.7614C13.4977 17.3727 12.8417 16.7631 11.9183 15.9034L11.8976 15.8841C11.5119 15.5249 11.1919 15.2271 10.9095 15.0097C10.6142 14.7824 10.3164 14.6077 9.96536 14.5332C9.65816 14.4681 9.34184 14.4681 9.03464 14.5332C8.6836 14.6077 8.3858 14.7824 8.09052 15.0097C7.80807 15.2271 7.48815 15.5249 7.1024 15.8841L7.08167 15.9034C6.15827 16.7631 5.50229 17.3727 4.98089 17.7614C4.44636 18.16 4.18144 18.2244 4.02339 18.2054C3.7764 18.1756 3.54364 18.0636 3.35855 17.884C3.23763 17.7667 3.1082 17.5073 3.03803 16.8162C2.96957 16.1418 2.96875 15.2144 2.96875 13.9091V9.74795C2.96875 7.94355 2.96999 6.65245 3.094 5.671C3.21582 4.70685 3.44638 4.13588 3.84053 3.71649Z" fill="#646D7E"/>
</svg>
