<svg width="20" height="20" viewBox="0 0 20 20" fill="none" xmlns="http://www.w3.org/2000/svg">
<path fill-rule="evenodd" clip-rule="evenodd" d="M8.75 0.916667L8.71117 0.916667C7.38015 0.916659 6.32769 0.916653 5.48492 0.996784C4.62282 1.07875 3.90301 1.24984 3.26438 1.64119C2.60282 2.04659 2.04659 2.60282 1.64119 3.26438C1.24984 3.90301 1.07875 4.62282 0.996784 5.48492C0.916653 6.32769 0.916659 7.38015 0.916667 8.71117L0.916667 8.75V9.58333L0.916667 9.6108C0.916663 10.5582 0.91666 11.3075 0.958052 11.9142C1.0003 12.5335 1.08818 13.0587 1.29093 13.5482C1.78994 14.7529 2.74709 15.7101 3.95181 16.2091C4.64673 16.4969 5.43234 16.5581 6.47839 16.5761C6.84663 16.5824 7.0716 16.5871 7.24114 16.6059C7.39678 16.6231 7.44179 16.6468 7.45859 16.6565C7.47785 16.6677 7.51961 16.695 7.60719 16.8152C7.704 16.948 7.81485 17.1337 7.99726 17.4419L8.44901 18.2051C9.14205 19.376 10.8579 19.376 11.551 18.2051L12.0027 17.4419C12.1851 17.1337 12.296 16.948 12.3928 16.8152C12.4804 16.695 12.5221 16.6677 12.5414 16.6565C12.5582 16.6468 12.6032 16.6231 12.7588 16.6059C12.9284 16.5871 13.1533 16.5824 13.5216 16.5761C14.5676 16.5581 15.3533 16.4969 16.0482 16.2091C17.2529 15.7101 18.2101 14.7529 18.7091 13.5482C18.9118 13.0587 18.9997 12.5335 19.0419 11.9142C19.0833 11.3075 19.0833 10.5583 19.0833 9.61086V9.61081V9.58333V8.75V8.71115C19.0833 7.38014 19.0833 6.32769 19.0032 5.48492C18.9212 4.62282 18.7502 3.90301 18.3588 3.26438C17.9534 2.60282 17.3972 2.04659 16.7356 1.64119C16.097 1.24984 15.3772 1.07875 14.5151 0.996784C13.6723 0.916653 12.6199 0.916659 11.2888 0.916667L11.25 0.916667H8.75ZM4.04813 2.92015C4.41146 2.6975 4.87459 2.56158 5.6269 2.49005C6.39038 2.41746 7.37155 2.41667 8.75 2.41667H11.25C12.6285 2.41667 13.6096 2.41746 14.3731 2.49005C15.1254 2.56158 15.5885 2.6975 15.9519 2.92015C16.4116 3.20187 16.7981 3.5884 17.0799 4.04813C17.3025 4.41146 17.4384 4.87459 17.51 5.6269C17.5825 6.39038 17.5833 7.37155 17.5833 8.75V9.58333C17.5833 10.5643 17.5829 11.2625 17.5454 11.8121C17.5084 12.355 17.4377 12.6979 17.3233 12.9742C16.9765 13.8113 16.3113 14.4765 15.4742 14.8233C15.0686 14.9913 14.542 15.0583 13.4957 15.0763L13.4653 15.0768H13.4653C13.1371 15.0825 12.8412 15.0876 12.5937 15.115C12.3247 15.1448 12.0519 15.206 11.7872 15.3599C11.5251 15.5124 11.3385 15.7149 11.1806 15.9317C11.0364 16.1294 10.8893 16.3781 10.7274 16.6516L10.7119 16.6778L10.2601 17.4411C10.1479 17.6307 9.85207 17.6307 9.73984 17.4411L9.28809 16.6778L9.27256 16.6516L9.27254 16.6516C9.11069 16.3781 8.96354 16.1294 8.8194 15.9317C8.66143 15.7149 8.47488 15.5124 8.21273 15.3599L7.83566 16.0082L8.21273 15.3599C7.94811 15.206 7.67526 15.1448 7.40623 15.115C7.15874 15.0876 6.8629 15.0825 6.53468 15.0768H6.53463L6.50424 15.0763C5.45802 15.0583 4.93142 14.9913 4.52583 14.8233C3.68865 14.4765 3.02352 13.8113 2.67674 12.9742C2.56232 12.6979 2.49161 12.355 2.45457 11.8121C2.41707 11.2625 2.41667 10.5643 2.41667 9.58333V8.75C2.41667 7.37155 2.41746 6.39038 2.49005 5.6269C2.56158 4.87459 2.6975 4.41146 2.92015 4.04813C3.20187 3.5884 3.5884 3.20187 4.04813 2.92015ZM6.66667 8.16667C6.11438 8.16667 5.66667 8.61438 5.66667 9.16667C5.66667 9.71895 6.11438 10.1667 6.66667 10.1667H6.67417C7.22645 10.1667 7.67417 9.71895 7.67417 9.16667C7.67417 8.61438 7.22645 8.16667 6.67417 8.16667H6.66667ZM9.9925 8.16667C9.44022 8.16667 8.9925 8.61438 8.9925 9.16667C8.9925 9.71895 9.44022 10.1667 9.9925 10.1667H10C10.5523 10.1667 11 9.71895 11 9.16667C11 8.61438 10.5523 8.16667 10 8.16667H9.9925ZM13.3258 8.16667C12.7735 8.16667 12.3258 8.61438 12.3258 9.16667C12.3258 9.71895 12.7735 10.1667 13.3258 10.1667H13.3333C13.8856 10.1667 14.3333 9.71895 14.3333 9.16667C14.3333 8.61438 13.8856 8.16667 13.3333 8.16667H13.3258Z" fill="#646D7E"/>
</svg>
