<svg width="19" height="21" viewBox="0 0 19 21" fill="none" xmlns="http://www.w3.org/2000/svg">
<path fill-rule="evenodd" clip-rule="evenodd" d="M9.45462 1.54169H9.54547C11.3729 1.54168 12.8051 1.54167 13.9225 1.69981C15.0663 1.86168 15.9688 2.19946 16.6772 2.94513C17.3856 3.69081 17.7065 4.64083 17.8602 5.84478C18.0105 7.02102 18.0105 8.52855 18.0105 10.4522V10.5478C18.0105 12.4715 18.0105 13.979 17.8602 15.1553C17.7065 16.3592 17.3856 17.3092 16.6772 18.0549C15.9688 18.8006 15.0663 19.1384 13.9225 19.3002C12.8051 19.4584 11.3729 19.4584 9.54546 19.4584H9.45462C7.62714 19.4584 6.19499 19.4584 5.07756 19.3002C3.93381 19.1384 3.03129 18.8006 2.3229 18.0549C1.61451 17.3092 1.29361 16.3592 1.13984 15.1553C0.989606 13.979 0.989614 12.4715 0.989624 10.5478V10.4522C0.989614 8.52854 0.989606 7.02101 1.13984 5.84478C1.29361 4.64083 1.61451 3.69081 2.3229 2.94513C3.03129 2.19946 3.93381 1.86168 5.07756 1.69981C6.19498 1.54167 7.62714 1.54168 9.45462 1.54169ZM5.23579 2.93866C4.22372 3.08189 3.61357 3.3543 3.16259 3.82902C2.71161 4.30373 2.45282 4.946 2.31675 6.01133C2.17839 7.09465 2.17712 8.51817 2.17712 10.5C2.17712 12.4819 2.17839 13.9054 2.31675 14.9887C2.45282 16.054 2.71161 16.6963 3.16259 17.171C3.61357 17.6457 4.22372 17.9181 5.23579 18.0614C6.26494 18.207 7.61728 18.2084 9.50004 18.2084C11.3828 18.2084 12.7351 18.207 13.7643 18.0614C14.7764 17.9181 15.3865 17.6457 15.8375 17.171C16.2885 16.6963 16.5473 16.054 16.6833 14.9887C16.8217 13.9054 16.823 12.4819 16.823 10.5C16.823 8.51817 16.8217 7.09465 16.6833 6.01133C16.5473 4.946 16.2885 4.30373 15.8375 3.82902C15.3865 3.3543 14.7764 3.08189 13.7643 2.93866C12.7351 2.79301 11.3828 2.79169 9.50004 2.79169C7.61728 2.79169 6.26494 2.79301 5.23579 2.93866ZM8.32619 5.88077C8.56365 6.11882 8.57281 6.51443 8.34666 6.76439L6.08476 9.26439C5.97269 9.38825 5.8173 9.45835 5.6548 9.45835C5.49231 9.45835 5.33691 9.38825 5.22485 9.26439L4.32008 8.26439C4.09393 8.01443 4.1031 7.61882 4.34056 7.38077C4.57802 7.14271 4.95385 7.15236 5.18 7.40232L5.6548 7.9271L7.48675 5.90232C7.7129 5.65236 8.08873 5.64271 8.32619 5.88077ZM9.69796 8.00002C9.69796 7.65484 9.96379 7.37502 10.2917 7.37502H14.25C14.578 7.37502 14.8438 7.65484 14.8438 8.00002C14.8438 8.3452 14.578 8.62502 14.25 8.62502H10.2917C9.96379 8.62502 9.69796 8.3452 9.69796 8.00002ZM8.32619 11.7141C8.56365 11.9522 8.57281 12.3478 8.34666 12.5977L6.08476 15.0977C5.97269 15.2216 5.8173 15.2917 5.6548 15.2917C5.49231 15.2917 5.33691 15.2216 5.22485 15.0977L4.32008 14.0977C4.09393 13.8478 4.1031 13.4522 4.34056 13.2141C4.57802 12.976 4.95385 12.9857 5.18 13.2357L5.6548 13.7604L7.48675 11.7357C7.7129 11.4857 8.08873 11.476 8.32619 11.7141ZM9.69796 13.8334C9.69796 13.4882 9.96379 13.2084 10.2917 13.2084H14.25C14.578 13.2084 14.8438 13.4882 14.8438 13.8334C14.8438 14.1785 14.578 14.4584 14.25 14.4584H10.2917C9.96379 14.4584 9.69796 14.1785 9.69796 13.8334Z" fill="#646D7E"/>
</svg>
