<svg width="19" height="21" viewBox="0 0 19 21" fill="none" xmlns="http://www.w3.org/2000/svg">
<path fill-rule="evenodd" clip-rule="evenodd" d="M7.87204 1.54166L7.91671 1.54166C8.24463 1.54166 8.51046 1.82148 8.51046 2.16666C8.51046 2.51183 8.24463 2.79166 7.91671 2.79166C6.40714 2.79166 5.3347 2.79298 4.52113 2.90812C3.72464 3.02084 3.26576 3.23223 2.93071 3.58491C2.59567 3.93758 2.39485 4.42062 2.28777 5.25903C2.17839 6.11542 2.17712 7.24431 2.17712 8.83332C2.17712 9.1785 1.91129 9.45832 1.58337 9.45832C1.25546 9.45832 0.989625 9.1785 0.989625 8.83332L0.989624 8.78631C0.989612 7.25484 0.989602 6.04182 1.11086 5.09247C1.23564 4.11545 1.49857 3.32466 2.09103 2.70103C2.68348 2.07739 3.43473 1.80063 4.3629 1.66927C5.26478 1.54163 6.41715 1.54164 7.87204 1.54166ZM14.479 2.90812C13.6654 2.79298 12.5929 2.79166 11.0834 2.79166C10.7555 2.79166 10.4896 2.51183 10.4896 2.16666C10.4896 1.82148 10.7555 1.54166 11.0834 1.54166L11.128 1.54166C12.5829 1.54164 13.7353 1.54163 14.6372 1.66927C15.5654 1.80063 16.3166 2.07739 16.9091 2.70103C17.5015 3.32466 17.7644 4.11545 17.8892 5.09247C18.0105 6.04182 18.0105 7.25485 18.0105 8.78631V8.83332C18.0105 9.1785 17.7446 9.45832 17.4167 9.45832C17.0888 9.45832 16.823 9.1785 16.823 8.83332C16.823 7.24431 16.8217 6.11542 16.7123 5.25903C16.6052 4.42062 16.4044 3.93758 16.0694 3.58491C15.7343 3.23223 15.2754 3.02084 14.479 2.90812ZM7.51877 5.73326C7.35194 5.70965 7.11919 5.70832 6.72921 5.70832C6.15263 5.70832 5.77993 5.70965 5.50531 5.74851C5.24778 5.78496 5.16706 5.8438 5.12186 5.89138C5.07666 5.93896 5.02076 6.02393 4.98614 6.29501C4.94922 6.58408 4.94796 6.9764 4.94796 7.58332C4.94796 7.99383 4.94922 8.23883 4.97165 8.41444C4.98193 8.4949 4.99403 8.5352 5.00113 8.55335C5.00277 8.55756 5.00405 8.56032 5.00485 8.56193L5.00594 8.56396L5.00786 8.56511C5.00939 8.56595 5.01202 8.5673 5.01601 8.56903C5.03326 8.57649 5.07154 8.58924 5.14798 8.60005C5.31481 8.62366 5.54756 8.62499 5.93754 8.62499H6.72921C7.11919 8.62499 7.35194 8.62366 7.51877 8.60005C7.59521 8.58924 7.63349 8.57649 7.65074 8.56903C7.65473 8.5673 7.65735 8.56595 7.65888 8.56511L7.66081 8.56396L7.6619 8.56193C7.6627 8.56032 7.66398 8.55756 7.66562 8.55335C7.67272 8.5352 7.68482 8.4949 7.6951 8.41444C7.71753 8.23883 7.71879 7.99383 7.71879 7.58332V6.74999C7.71879 6.33948 7.71753 6.09448 7.6951 5.91888C7.68482 5.83841 7.67272 5.79811 7.66562 5.77996L7.66423 5.77652C7.66325 5.77418 7.6619 5.77138 7.6619 5.77138L7.66081 5.76935L7.65889 5.76821C7.65735 5.76737 7.65473 5.76602 7.65074 5.76429C7.63349 5.75682 7.59521 5.74408 7.51877 5.73326ZM7.677 4.49441C7.95842 4.53423 8.25587 4.62794 8.50051 4.88546C8.74516 5.14298 8.83418 5.45608 8.87201 5.75232C8.90637 6.02133 8.90633 6.35202 8.90629 6.7127C8.90629 6.7251 8.90629 6.73753 8.90629 6.74999V7.58332C8.90629 7.59579 8.90629 7.60822 8.90629 7.62061C8.90633 7.98129 8.90637 8.31199 8.87201 8.581C8.83418 8.87723 8.74516 9.19033 8.50051 9.44785C8.25587 9.70537 7.95842 9.79908 7.677 9.83891C7.42144 9.87507 7.10728 9.87504 6.76463 9.87499C6.75286 9.87499 6.74105 9.87499 6.72921 9.87499H5.93754C5.9257 9.87499 5.91389 9.87499 5.90212 9.87499C5.55947 9.87504 5.24531 9.87507 4.98975 9.83891C4.70833 9.79908 4.41088 9.70537 4.16624 9.44785C3.92159 9.19033 3.83257 8.87723 3.79474 8.581C3.76038 8.31199 3.76041 7.98129 3.76046 7.62062C3.76046 7.60822 3.76046 7.59579 3.76046 7.58332L3.76046 7.54218C3.76043 6.98812 3.7604 6.51074 3.80923 6.12845C3.86156 5.71876 3.97956 5.32604 4.28217 5.0075C4.58479 4.68896 4.95787 4.56474 5.34708 4.50966C5.71025 4.45826 6.16377 4.45829 6.69012 4.45832L6.72921 4.45832C6.74105 4.45832 6.75286 4.45832 6.76464 4.45832C7.10728 4.45828 7.42144 4.45824 7.677 4.49441ZM12.2354 4.45832L12.31 4.45832C12.8363 4.45829 13.2898 4.45826 13.653 4.50966C14.0422 4.56474 14.4153 4.68896 14.7179 5.0075C15.0205 5.32604 15.1385 5.71876 15.1909 6.12845C15.2397 6.51074 15.2397 6.98813 15.2396 7.54218L15.2396 7.62061C15.2397 7.98129 15.2397 8.31199 15.2053 8.581C15.1675 8.87723 15.0785 9.19033 14.8338 9.44785C14.5892 9.70537 14.2918 9.79908 14.0103 9.83891C13.7548 9.87507 13.4406 9.87504 13.098 9.87499H12.2355C11.8928 9.87504 11.5786 9.87507 11.3231 9.83891C11.0417 9.79908 10.7442 9.70537 10.4996 9.44785C10.2549 9.19033 10.1659 8.87723 10.1281 8.581C10.0937 8.31199 10.0937 7.98129 10.0938 7.62061V6.7127C10.0937 6.35202 10.0937 6.02133 10.1281 5.75232C10.1659 5.45608 10.2549 5.14298 10.4996 4.88546C10.7442 4.62794 11.0417 4.53423 11.3231 4.49441C11.5786 4.45824 11.8928 4.45828 12.2354 4.45832ZM11.3412 5.76821L11.3393 5.76935L11.3382 5.77138C11.3374 5.77299 11.3361 5.77576 11.3345 5.77996C11.3274 5.79811 11.3153 5.83841 11.305 5.91888C11.2826 6.09448 11.2813 6.33948 11.2813 6.74999V7.58332C11.2813 7.99383 11.2826 8.23883 11.305 8.41444C11.3153 8.4949 11.3274 8.5352 11.3345 8.55335C11.3361 8.55756 11.3374 8.56032 11.3382 8.56193L11.3393 8.56396L11.3412 8.56511C11.3427 8.56595 11.3454 8.5673 11.3493 8.56903C11.3666 8.57649 11.4049 8.58924 11.4813 8.60005C11.6481 8.62366 11.8809 8.62499 12.2709 8.62499H13.0625C13.4525 8.62499 13.6853 8.62366 13.8521 8.60005C13.9285 8.58924 13.9668 8.57649 13.9841 8.56903C13.9881 8.5673 13.9907 8.56595 13.9922 8.56511L13.9941 8.56396L13.9952 8.56193C13.996 8.56032 13.9973 8.55756 13.999 8.55335C14.0061 8.5352 14.0182 8.4949 14.0284 8.41444C14.0509 8.23883 14.0521 7.99383 14.0521 7.58332C14.0521 6.9764 14.0509 6.58408 14.0139 6.29501C13.9793 6.02393 13.9234 5.93896 13.8782 5.89138C13.833 5.8438 13.7523 5.78496 13.4948 5.74851C13.2202 5.70965 12.8475 5.70832 12.2709 5.70832C11.8809 5.70832 11.6481 5.70965 11.4813 5.73326C11.4049 5.74408 11.3666 5.75682 11.3493 5.76429L11.3456 5.76596C11.3436 5.7669 11.3412 5.76821 11.3412 5.76821ZM5.90212 11.125H6.76463C7.10728 11.1249 7.42144 11.1249 7.677 11.1611C7.95842 11.2009 8.25587 11.2946 8.50051 11.5521C8.74516 11.8096 8.83418 12.1228 8.87201 12.419C8.90637 12.688 8.90633 13.0187 8.90629 13.3794V14.2873C8.90633 14.648 8.90637 14.9787 8.87201 15.2477C8.83418 15.5439 8.74516 15.857 8.50051 16.1145C8.25587 16.372 7.95842 16.4657 7.677 16.5056C7.42144 16.5417 7.10728 16.5417 6.76463 16.5417L6.69012 16.5417C6.16377 16.5417 5.71026 16.5417 5.34708 16.4903C4.95787 16.4352 4.58479 16.311 4.28217 15.9925C3.97956 15.6739 3.86156 15.2812 3.80923 14.8715C3.7604 14.4892 3.76043 14.0119 3.76046 13.4578L3.76046 13.3794C3.76041 13.0187 3.76038 12.688 3.79474 12.419C3.83257 12.1228 3.92159 11.8096 4.16624 11.5521C4.41088 11.2946 4.70833 11.2009 4.98975 11.1611C5.24531 11.1249 5.55947 11.1249 5.90212 11.125ZM5.00786 12.4349L5.00594 12.436L5.00485 12.438C5.00405 12.4397 5.00277 12.4424 5.00113 12.4466C4.99403 12.4648 4.98193 12.5051 4.97165 12.5855C4.94922 12.7611 4.94796 13.0062 4.94796 13.4167C4.94796 14.0236 4.94922 14.4159 4.98614 14.705C5.02076 14.9761 5.07666 15.061 5.12186 15.1086C5.16706 15.1562 5.24778 15.215 5.50531 15.2515C5.77993 15.2903 6.15263 15.2917 6.72921 15.2917C7.11919 15.2917 7.35194 15.2903 7.51877 15.2667C7.59521 15.2559 7.63349 15.2432 7.65074 15.2357C7.65473 15.234 7.65735 15.2326 7.65889 15.2318L7.66081 15.2306L7.6619 15.2286C7.6627 15.227 7.66398 15.2242 7.66562 15.22C7.67272 15.2019 7.68482 15.1616 7.6951 15.0811C7.71753 14.9055 7.71879 14.6605 7.71879 14.25V13.4167C7.71879 13.0062 7.71753 12.7611 7.6951 12.5855C7.68482 12.5051 7.67272 12.4648 7.66562 12.4466C7.66398 12.4424 7.6627 12.4397 7.6619 12.438L7.66081 12.436L7.65888 12.4349C7.65735 12.434 7.65473 12.4327 7.65074 12.431C7.63349 12.4235 7.59521 12.4107 7.51877 12.3999C7.35194 12.3763 7.11919 12.375 6.72921 12.375H5.93754C5.54756 12.375 5.31481 12.3763 5.14798 12.3999C5.07154 12.4107 5.03326 12.4235 5.01601 12.431C5.01202 12.4327 5.00939 12.434 5.00786 12.4349ZM12.2355 11.125H13.098C13.4406 11.1249 13.7548 11.1249 14.0103 11.1611C14.2918 11.2009 14.5892 11.2946 14.8338 11.5521C15.0785 11.8096 15.1675 12.1228 15.2053 12.419C15.2397 12.688 15.2397 13.0187 15.2396 13.3794L15.2396 13.4578C15.2397 14.0119 15.2397 14.4892 15.1909 14.8715C15.1385 15.2812 15.0205 15.6739 14.7179 15.9925C14.4153 16.311 14.0422 16.4352 13.653 16.4903C13.2898 16.5417 12.8363 16.5417 12.31 16.5417L12.2355 16.5417C11.8928 16.5417 11.5786 16.5417 11.3231 16.5056C11.0417 16.4657 10.7442 16.372 10.4996 16.1145C10.2549 15.857 10.1659 15.5439 10.1281 15.2477C10.0937 14.9787 10.0937 14.648 10.0938 14.2873V13.3794C10.0937 13.0187 10.0937 12.688 10.1281 12.419C10.1659 12.1228 10.2549 11.8096 10.4996 11.5521C10.7442 11.2946 11.0417 11.2009 11.3231 11.1611C11.5786 11.1249 11.8928 11.1249 12.2355 11.125ZM11.3412 12.4349L11.3394 12.4359L11.3382 12.438L11.3366 12.4414C11.3366 12.4414 11.3353 12.4445 11.3345 12.4466C11.3274 12.4648 11.3153 12.5051 11.305 12.5855C11.2826 12.7611 11.2813 13.0062 11.2813 13.4167V14.25C11.2813 14.6605 11.2826 14.9055 11.305 15.0811C11.3153 15.1616 11.3274 15.2019 11.3345 15.22C11.3353 15.2223 11.3368 15.2255 11.3368 15.2255L11.3382 15.2286L11.3393 15.2306L11.3412 15.2318C11.3427 15.2326 11.3454 15.234 11.3493 15.2357C11.3666 15.2432 11.4049 15.2559 11.4813 15.2667C11.6481 15.2903 11.8809 15.2917 12.2709 15.2917C12.8475 15.2917 13.2202 15.2903 13.4948 15.2515C13.7523 15.215 13.833 15.1562 13.8782 15.1086C13.9234 15.061 13.9793 14.9761 14.0139 14.705C14.0509 14.4159 14.0521 14.0236 14.0521 13.4167C14.0521 13.0062 14.0509 12.7611 14.0284 12.5855C14.0182 12.5051 14.0061 12.4648 13.999 12.4466C13.9973 12.4424 13.996 12.4397 13.9952 12.438L13.9941 12.436L13.9922 12.4349C13.9907 12.434 13.9881 12.4327 13.9841 12.431C13.9668 12.4235 13.9285 12.4107 13.8521 12.3999C13.6853 12.3763 13.4525 12.375 13.0625 12.375H12.2709C11.8809 12.375 11.6481 12.3763 11.4813 12.3999C11.4049 12.4107 11.3666 12.4235 11.3493 12.431C11.3454 12.4327 11.3427 12.434 11.3412 12.4349ZM1.58337 11.5417C1.91129 11.5417 2.17712 11.8215 2.17712 12.1667C2.17712 13.7557 2.17839 14.8846 2.28777 15.7409C2.39485 16.5794 2.59567 17.0624 2.93071 17.4151C3.26576 17.7677 3.72464 17.9791 4.52113 18.0919C5.3347 18.207 6.40714 18.2083 7.91671 18.2083C8.24463 18.2083 8.51046 18.4881 8.51046 18.8333C8.51046 19.1785 8.24463 19.4583 7.91671 19.4583H7.87205C6.41715 19.4583 5.26478 19.4583 4.3629 19.3307C3.43473 19.1994 2.68348 18.9226 2.09103 18.299C1.49857 17.6753 1.23564 16.8845 1.11086 15.9075C0.989602 14.9582 0.989612 13.7451 0.989624 12.2137L0.989625 12.1667C0.989625 11.8215 1.25546 11.5417 1.58337 11.5417ZM17.4167 11.5417C17.7446 11.5417 18.0105 11.8215 18.0105 12.1667V12.2137C18.0105 13.7451 18.0105 14.9582 17.8892 15.9075C17.7644 16.8845 17.5015 17.6753 16.9091 18.299C16.3166 18.9226 15.5654 19.1994 14.6372 19.3307C13.7353 19.4583 12.5829 19.4583 11.128 19.4583H11.0834C10.7555 19.4583 10.4896 19.1785 10.4896 18.8333C10.4896 18.4881 10.7555 18.2083 11.0834 18.2083C12.5929 18.2083 13.6654 18.207 14.479 18.0919C15.2754 17.9791 15.7343 17.7677 16.0694 17.4151C16.4044 17.0624 16.6052 16.5794 16.7123 15.7409C16.8217 14.8846 16.823 13.7557 16.823 12.1667C16.823 11.8215 17.0888 11.5417 17.4167 11.5417Z" fill="#646D7E"/>
</svg>
