<svg width="20" height="19" viewBox="0 0 20 19" fill="none" xmlns="http://www.w3.org/2000/svg">
<path fill-rule="evenodd" clip-rule="evenodd" d="M10.0003 0.416992H9.94372H9.94371C8.02754 0.416977 6.51301 0.416965 5.32842 0.576229C4.11062 0.739959 3.12982 1.08428 2.35705 1.85705C1.58428 2.62982 1.23996 3.61062 1.07623 4.82842C0.916965 6.01301 0.916977 7.52754 0.916992 9.44371V9.44372V9.50033V9.55693V9.55694C0.916977 11.4731 0.916965 12.9876 1.07623 14.1722C1.23996 15.39 1.58428 16.3708 2.35705 17.1436C3.12982 17.9164 4.11062 18.2607 5.32842 18.4244C6.51301 18.5837 8.02752 18.5837 9.94368 18.5837H9.94373H10.0003H10.0569H10.057C11.9731 18.5837 13.4876 18.5837 14.6722 18.4244C15.89 18.2607 16.8708 17.9164 17.6436 17.1436C18.4164 16.3708 18.7607 15.39 18.9244 14.1722C19.0837 12.9876 19.0837 11.4731 19.0837 9.55697V9.55693V9.50033V9.44373V9.44368C19.0837 7.52752 19.0837 6.01301 18.9244 4.82842C18.7607 3.61062 18.4164 2.62982 17.6436 1.85705C16.8708 1.08428 15.89 0.739959 14.6722 0.576229C13.4876 0.416965 11.9731 0.416977 10.0569 0.416992H10.0569H10.0003ZM3.41771 2.91771C3.86533 2.47009 4.47682 2.20422 5.5283 2.06285C6.60135 1.91859 8.01494 1.91699 10.0003 1.91699C11.9857 1.91699 13.3993 1.91859 14.4724 2.06285C15.5238 2.20422 16.1353 2.47009 16.5829 2.91771C17.0306 3.36533 17.2964 3.97682 17.4378 5.0283C17.5821 6.10135 17.5837 7.51494 17.5837 9.50033C17.5837 11.4857 17.5821 12.8993 17.4378 13.9724C17.2964 15.0238 17.0306 15.6353 16.5829 16.0829C16.1353 16.5306 15.5238 16.7964 14.4724 16.9378C13.3993 17.0821 11.9857 17.0837 10.0003 17.0837C8.01494 17.0837 6.60135 17.0821 5.5283 16.9378C4.47682 16.7964 3.86533 16.5306 3.41771 16.0829C2.97009 15.6353 2.70422 15.0238 2.56285 13.9724C2.41859 12.8993 2.41699 11.4857 2.41699 9.50033C2.41699 7.51494 2.41859 6.10135 2.56285 5.0283C2.70422 3.97682 2.97009 3.36533 3.41771 2.91771ZM11.333 7.83301C11.333 8.24722 11.6688 8.58301 12.083 8.58301H12.3557L10.8919 10.0468C10.8594 10.0793 10.8066 10.0793 10.7741 10.0468L9.45259 8.72527C8.83426 8.10694 7.83175 8.10694 7.21342 8.72527L5.30268 10.636C5.00979 10.9289 5.00979 11.4038 5.30268 11.6967C5.59557 11.9896 6.07045 11.9896 6.36334 11.6967L8.27408 9.78593C8.30663 9.75338 8.35939 9.75338 8.39193 9.78593L9.71342 11.1074C10.3318 11.7257 11.3343 11.7257 11.9526 11.1074L13.4163 9.64367V9.91634C13.4163 10.3306 13.7521 10.6663 14.1663 10.6663C14.5806 10.6663 14.9163 10.3306 14.9163 9.91634V7.83301C14.9163 7.41879 14.5806 7.08301 14.1663 7.08301H12.083C11.6688 7.08301 11.333 7.41879 11.333 7.83301Z" fill="#646D7E"/>
</svg>
