<svg width="20" height="19" viewBox="0 0 20 19" fill="none" xmlns="http://www.w3.org/2000/svg">
<path fill-rule="evenodd" clip-rule="evenodd" d="M10 0.416667C10.1989 0.416667 10.3897 0.495684 10.5303 0.636337L13.0303 3.13634C13.3232 3.42923 13.3232 3.9041 13.0303 4.197C12.7374 4.48989 12.2626 4.48989 11.9697 4.197L10.75 2.97733V7.83333C10.75 8.24755 10.4142 8.58333 10 8.58333C9.58579 8.58333 9.25 8.24755 9.25 7.83333V2.97733L8.03033 4.197C7.73744 4.48989 7.26256 4.48989 6.96967 4.197C6.67678 3.9041 6.67678 3.42923 6.96967 3.13634L9.46967 0.636337C9.61032 0.495684 9.80109 0.416667 10 0.416667ZM6.57973 1.19897C6.62028 1.61119 6.31897 1.97824 5.90675 2.01879C4.61821 2.14553 3.91605 2.41872 3.41739 2.91739C2.96977 3.365 2.70389 3.97649 2.56253 5.02797C2.41826 6.10102 2.41667 7.51461 2.41667 9.5C2.41667 9.52789 2.41667 9.55567 2.41667 9.58333H4.30022L4.42276 9.58322C5.05486 9.58232 5.59202 9.58156 6.0766 9.80443C6.56117 10.0273 6.91017 10.4356 7.32085 10.9162L7.40051 11.0093L7.90504 11.5979C8.4406 12.2227 8.5694 12.3483 8.71686 12.4161C8.86432 12.484 9.0435 12.5 9.86645 12.5H10.1336C10.9565 12.5 11.1357 12.484 11.2831 12.4161C11.4306 12.3483 11.5594 12.2227 12.095 11.5979L12.5995 11.0093L12.6791 10.9162L12.6792 10.9161C13.0898 10.4356 13.4388 10.0273 13.9234 9.80443C14.408 9.58156 14.9451 9.58232 15.5772 9.58322L15.6998 9.58333H17.5833C17.5833 9.55567 17.5833 9.52789 17.5833 9.5C17.5833 7.51461 17.5817 6.10102 17.4375 5.02797C17.2961 3.97649 17.0302 3.365 16.5826 2.91739C16.0839 2.41872 15.3818 2.14553 14.0932 2.01879C13.681 1.97824 13.3797 1.61119 13.4203 1.19897C13.4608 0.786746 13.8279 0.485443 14.2401 0.52599C15.6601 0.665668 16.7811 0.994596 17.6433 1.85672C18.416 2.6295 18.7604 3.61029 18.9241 4.8281C19.0834 6.01268 19.0833 7.5272 19.0833 9.44335V9.4434V9.5V9.5566V9.55665C19.0833 9.8147 19.0833 10.0655 19.0829 10.3091C19.0832 10.3172 19.0833 10.3252 19.0833 10.3333C19.0833 10.3423 19.0832 10.3512 19.0829 10.3601C19.08 11.9024 19.0604 13.158 18.9241 14.1719C18.7604 15.3897 18.416 16.3705 17.6433 17.1433C16.8705 17.916 15.8897 18.2604 14.6719 18.4241C13.4873 18.5834 11.9728 18.5833 10.0566 18.5833H10.0566H10H9.9434H9.94335C8.0272 18.5833 6.51268 18.5834 5.3281 18.4241C4.11029 18.2604 3.1295 17.916 2.35672 17.1433C1.58395 16.3705 1.23963 15.3897 1.0759 14.1719C0.939588 13.158 0.919955 11.9024 0.917136 10.3601C0.916824 10.3512 0.916667 10.3423 0.916667 10.3333C0.916667 10.3252 0.916795 10.3172 0.917049 10.3091C0.916662 10.0655 0.916664 9.81468 0.916666 9.55661L0.916667 9.5L0.916666 9.44339C0.916651 7.52722 0.916639 6.01269 1.0759 4.8281C1.23963 3.61029 1.58395 2.6295 2.35672 1.85672C3.21885 0.994596 4.33988 0.665668 5.75992 0.52599C6.17214 0.485443 6.53918 0.786746 6.57973 1.19897ZM2.42047 11.0833C2.4295 12.2738 2.45994 13.209 2.56253 13.972C2.70389 15.0235 2.96977 15.635 3.41739 16.0826C3.865 16.5302 4.47649 16.7961 5.52797 16.9375C6.60102 17.0817 8.01461 17.0833 10 17.0833C11.9854 17.0833 13.399 17.0817 14.472 16.9375C15.5235 16.7961 16.135 16.5302 16.5826 16.0826C17.0302 15.635 17.2961 15.0235 17.4375 13.972C17.5401 13.209 17.5705 12.2738 17.5795 11.0833H15.6998C14.8768 11.0833 14.6976 11.0994 14.5502 11.1672C14.4027 11.235 14.2739 11.3606 13.7384 11.9855L13.2338 12.5741L13.1542 12.6672C12.7435 13.1477 12.3945 13.556 11.9099 13.7789C11.4254 14.0018 10.8882 14.001 10.2561 14.0001L10.1336 14H9.86645L9.74391 14.0001C9.1118 14.001 8.57464 14.0018 8.09007 13.7789C7.6055 13.556 7.2565 13.1477 6.84581 12.6672L6.76615 12.5741L6.26163 11.9855C5.72606 11.3606 5.59727 11.235 5.44981 11.1672C5.30235 11.0994 5.12316 11.0833 4.30022 11.0833H2.42047Z" fill="#646D7E"/>
</svg>
