<svg width="19" height="20" viewBox="0 0 19 20" fill="none" xmlns="http://www.w3.org/2000/svg">
<path fill-rule="evenodd" clip-rule="evenodd" d="M9.50033 0.916992C5.54038 0.916992 2.41699 4.34063 2.41699 8.45307C2.41699 10.4392 2.95437 12.5709 3.90539 14.4141C4.85401 16.2528 6.2483 17.868 8.01107 18.7353C8.95505 19.1998 10.0456 19.1998 10.9896 18.7353C12.7523 17.868 14.1466 16.2528 15.0953 14.4141C16.0463 12.5709 16.5837 10.4392 16.5837 8.45307C16.5837 4.34063 13.4603 0.916992 9.50033 0.916992ZM3.91699 8.45307C3.91699 5.06982 6.46467 2.41699 9.50033 2.41699C12.536 2.41699 15.0837 5.06982 15.0837 8.45307C15.0837 10.1855 14.6103 12.0826 13.7622 13.7264C12.9117 15.3749 11.7184 16.705 10.3274 17.3894C9.80096 17.6484 9.19969 17.6484 8.67327 17.3894C7.28224 16.705 6.08895 15.3749 5.23842 13.7264C4.39031 12.0826 3.91699 10.1855 3.91699 8.45307ZM7.875 8.33301C7.875 7.32979 8.63832 6.58301 9.5 6.58301C10.3617 6.58301 11.125 7.32979 11.125 8.33301C11.125 9.33622 10.3617 10.083 9.5 10.083C8.63832 10.083 7.875 9.33622 7.875 8.33301ZM9.5 5.08301C7.73833 5.08301 6.375 6.5748 6.375 8.33301C6.375 10.0912 7.73833 11.583 9.5 11.583C11.2617 11.583 12.625 10.0912 12.625 8.33301C12.625 6.5748 11.2617 5.08301 9.5 5.08301Z" fill="#646D7E"/>
</svg>
