<svg width="19" height="20" viewBox="0 0 19 20" fill="none" xmlns="http://www.w3.org/2000/svg">
<path fill-rule="evenodd" clip-rule="evenodd" d="M9.5 0.916667L9.44104 0.916666C7.6251 0.916648 6.18197 0.916633 5.05154 1.07661C3.88321 1.24196 2.93938 1.5911 2.19895 2.37049C1.46368 3.14447 1.13898 4.12198 0.984298 5.33301C0.833309 6.51516 0.83332 8.02758 0.833333 9.94591L0.833333 10L0.833333 10.0541C0.83332 11.9724 0.833309 13.4848 0.984298 14.667C1.13898 15.878 1.46368 16.8555 2.19895 17.6295C2.93938 18.4089 3.88321 18.758 5.05154 18.9234C6.18197 19.0834 7.62509 19.0834 9.441 19.0833H9.5H9.55899C11.3749 19.0834 12.818 19.0834 13.9485 18.9234C15.1168 18.758 16.0606 18.4089 16.801 17.6295C17.5363 16.8555 17.861 15.878 18.0157 14.667C18.1667 13.4848 18.1667 11.9724 18.1667 10.0541V10.0541V10V8.75C18.1667 8.33579 17.8309 8 17.4167 8C17.0025 8 16.6667 8.33579 16.6667 8.75V10C16.6667 11.9844 16.6652 13.4009 16.5278 14.4769C16.3926 15.5352 16.1376 16.15 15.7135 16.5964C15.2946 17.0374 14.7258 17.2984 13.7383 17.4382C12.7251 17.5816 11.3883 17.5833 9.5 17.5833C7.61174 17.5833 6.2749 17.5816 5.26173 17.4382C4.27424 17.2984 3.70539 17.0374 3.28645 16.5964C2.86236 16.15 2.60738 15.5352 2.47221 14.4769C2.33477 13.4009 2.33333 11.9844 2.33333 10C2.33333 8.01565 2.33477 6.5991 2.47221 5.52306C2.60738 4.4648 2.86236 3.85003 3.28645 3.40362C3.70539 2.96263 4.27424 2.70157 5.26173 2.56182C6.2749 2.41843 7.61174 2.41667 9.5 2.41667H10.6875C11.1017 2.41667 11.4375 2.08088 11.4375 1.66667C11.4375 1.25245 11.1017 0.916667 10.6875 0.916667H9.5ZM13.4167 4.16667C13.4167 3.16345 14.18 2.41667 15.0417 2.41667C15.9033 2.41667 16.6667 3.16345 16.6667 4.16667C16.6667 5.16988 15.9033 5.91667 15.0417 5.91667C14.18 5.91667 13.4167 5.16988 13.4167 4.16667ZM15.0417 0.916667C13.28 0.916667 11.9167 2.40846 11.9167 4.16667C11.9167 5.92488 13.28 7.41667 15.0417 7.41667C16.8033 7.41667 18.1667 5.92488 18.1667 4.16667C18.1667 2.40846 16.8033 0.916667 15.0417 0.916667Z" fill="#646D7E"/>
</svg>
