<svg width="19" height="21" viewBox="0 0 19 21" fill="none" xmlns="http://www.w3.org/2000/svg">
<path fill-rule="evenodd" clip-rule="evenodd" d="M0.989624 5.49999C0.989624 3.31386 2.67322 1.54166 4.75004 1.54166C6.82686 1.54166 8.51046 3.31386 8.51046 5.49999V5.86L10.1202 4.16556C11.5887 2.61973 13.9697 2.61973 15.4382 4.16556C16.9067 5.71138 16.9067 8.21766 15.4382 9.76349L13.749 11.5417H14.25C16.3269 11.5417 18.0105 13.3139 18.0105 15.5C18.0105 17.6861 16.3269 19.4583 14.25 19.4583H4.75004C2.67322 19.4583 0.989624 17.6861 0.989624 15.5V5.49999ZM7.49247 18.2083H14.25C15.671 18.2083 16.823 16.9958 16.823 15.5C16.823 14.0042 15.671 12.7917 14.25 12.7917H12.5615L7.82875 17.7734C7.72639 17.9268 7.61396 18.0721 7.49247 18.2083ZM8.51046 15.2881L14.5985 8.8796C15.6033 7.82193 15.6033 6.10711 14.5985 5.04944C13.5937 3.99177 11.9647 3.99177 10.9599 5.04944L8.51046 7.62777V15.2881ZM4.75004 2.79166C3.32906 2.79166 2.17712 4.00422 2.17712 5.49999V15.5C2.17712 16.9958 3.32906 18.2083 4.75004 18.2083C6.17102 18.2083 7.32296 16.9958 7.32296 15.5V5.49999C7.32296 4.00422 6.17102 2.79166 4.75004 2.79166ZM4.75004 15.2917C4.64073 15.2917 4.55212 15.3849 4.55212 15.5C4.55212 15.615 4.64073 15.7083 4.75004 15.7083C4.85935 15.7083 4.94796 15.615 4.94796 15.5C4.94796 15.3849 4.85935 15.2917 4.75004 15.2917ZM3.36462 15.5C3.36462 14.6946 3.9849 14.0417 4.75004 14.0417C5.51519 14.0417 6.13546 14.6946 6.13546 15.5C6.13546 16.3054 5.51519 16.9583 4.75004 16.9583C3.9849 16.9583 3.36462 16.3054 3.36462 15.5Z" fill="#646D7E"/>
</svg>
