<svg width="19" height="21" viewBox="0 0 19 21" fill="none" xmlns="http://www.w3.org/2000/svg">
<path fill-rule="evenodd" clip-rule="evenodd" d="M9.50004 2.79169C5.45716 2.79169 2.17712 6.25103 2.17712 10.5218C2.17712 14.4904 5.01019 17.7593 8.65499 18.201C9.02108 18.2454 9.41298 18.0837 9.7263 17.753C10.0125 17.451 10.0125 16.9607 9.7263 16.6587C9.47935 16.398 9.23171 16.0507 9.09624 15.656C8.95746 15.2517 8.92316 14.7444 9.20471 14.273C9.46037 13.845 9.84372 13.6159 10.2459 13.5045C10.6331 13.3972 11.0623 13.3911 11.4745 13.4175C11.8577 13.4419 12.2701 13.4982 12.6703 13.5528C12.704 13.5574 12.7377 13.562 12.7712 13.5665C13.2121 13.6265 13.6426 13.6823 14.0585 13.7033C14.909 13.7462 15.5641 13.6333 16.0118 13.2481C16.4403 12.8793 16.823 12.1307 16.823 10.5218C16.823 6.25103 13.5429 2.79169 9.50004 2.79169ZM0.989624 10.5218C0.989624 5.56375 4.79841 1.54169 9.50004 1.54169C14.2017 1.54169 18.0105 5.56375 18.0105 10.5218C18.0105 12.3095 17.5855 13.5084 16.7635 14.2158C15.9607 14.9066 14.9225 14.9983 14.0017 14.9519C13.5319 14.9282 13.0573 14.8658 12.6191 14.8063C12.5884 14.8021 12.5578 14.7979 12.5275 14.7938C12.1162 14.7377 11.7432 14.6869 11.4026 14.6652C11.0335 14.6416 10.7531 14.6565 10.5481 14.7133C10.358 14.766 10.2664 14.844 10.21 14.9384C10.1793 14.9898 10.1576 15.0698 10.2131 15.2313C10.2718 15.4025 10.4 15.5996 10.5671 15.7759C11.3155 16.5658 11.3155 17.8459 10.5671 18.6358C10.0523 19.1791 9.31652 19.5394 8.51917 19.4428C4.27952 18.929 0.989624 15.1302 0.989624 10.5218ZM7.58817 5.70816C7.26025 5.70816 6.99442 5.98799 6.99442 6.33316C6.99442 6.67834 7.26025 6.95816 7.58817 6.95816C7.91609 6.95816 8.18192 6.67834 8.18192 6.33316C8.18192 5.98799 7.91609 5.70816 7.58817 5.70816ZM5.80692 6.33316C5.80692 5.29763 6.60441 4.45816 7.58817 4.45816C8.57193 4.45816 9.36942 5.29763 9.36942 6.33316C9.36942 7.3687 8.57193 8.20816 7.58817 8.20816C6.60441 8.20816 5.80692 7.3687 5.80692 6.33316ZM11.4792 5.70835C11.1513 5.70835 10.8855 5.98818 10.8855 6.33335C10.8855 6.67853 11.1513 6.95835 11.4792 6.95835C11.8071 6.95835 12.073 6.67853 12.073 6.33335C12.073 5.98818 11.8071 5.70835 11.4792 5.70835ZM9.69796 6.33335C9.69796 5.29782 10.4955 4.45835 11.4792 4.45835C12.463 4.45835 13.2605 5.29782 13.2605 6.33335C13.2605 7.36889 12.463 8.20835 11.4792 8.20835C10.4955 8.20835 9.69796 7.36889 9.69796 6.33335ZM5.14587 9.45835C4.81796 9.45835 4.55212 9.73818 4.55212 10.0834C4.55212 10.4285 4.81796 10.7084 5.14587 10.7084C5.47379 10.7084 5.73962 10.4285 5.73962 10.0834C5.73962 9.73818 5.47379 9.45835 5.14587 9.45835ZM3.36462 10.0834C3.36462 9.04782 4.16212 8.20835 5.14587 8.20835C6.12963 8.20835 6.92712 9.04782 6.92712 10.0834C6.92712 11.1189 6.12963 11.9584 5.14587 11.9584C4.16212 11.9584 3.36462 11.1189 3.36462 10.0834ZM13.8542 9.45835C13.5263 9.45835 13.2605 9.73818 13.2605 10.0834C13.2605 10.4285 13.5263 10.7084 13.8542 10.7084C14.1821 10.7084 14.448 10.4285 14.448 10.0834C14.448 9.73818 14.1821 9.45835 13.8542 9.45835ZM12.073 10.0834C12.073 9.04782 12.8705 8.20835 13.8542 8.20835C14.838 8.20835 15.6355 9.04782 15.6355 10.0834C15.6355 11.1189 14.838 11.9584 13.8542 11.9584C12.8705 11.9584 12.073 11.1189 12.073 10.0834Z" fill="#646D7E"/>
</svg>
