<svg width="17" height="18" viewBox="0 0 17 18" fill="none" xmlns="http://www.w3.org/2000/svg">
<path fill-rule="evenodd" clip-rule="evenodd" d="M9.69043 0.854492C8.93848 0.475586 8.06152 0.475586 7.30957 0.854492C6.98438 1.01758 6.69043 1.28223 6.31348 1.62109L6.24316 1.68359C6.05176 1.85449 6.00098 1.89941 5.9502 1.93555C5.90332 1.96777 5.85547 1.99707 5.80566 2.02246C5.76855 2.04199 5.73145 2.05859 5.69336 2.07324L5.62305 2.09766C5.58594 2.10938 5.54883 2.11914 5.51074 2.12695C5.4541 2.13965 5.38965 2.14551 5.13965 2.16699L5.04688 2.1748C4.55371 2.21582 4.16309 2.24805 3.82031 2.37598C3.58398 2.46387 3.36426 2.58398 3.16406 2.72949C3.07227 2.79688 2.98535 2.86914 2.90332 2.94727C2.56934 3.26367 2.31445 3.66309 2.16406 4.11035C2.04785 4.45508 2.01758 4.84668 1.97754 5.36621V5.38086L1.9707 5.47266C1.95117 5.7334 1.94434 5.80762 1.93164 5.87598C1.89844 6.05371 1.83203 6.2207 1.73828 6.36816C1.71387 6.40723 1.68457 6.44629 1.61328 6.53516L1.49707 6.67871L1.44043 6.75C1.30859 6.91211 1.18945 7.05859 1.08398 7.19727C0.929688 7.40234 0.805664 7.5918 0.714844 7.79199C0.367188 8.55664 0.367188 9.44336 0.714844 10.208C0.748047 10.2812 0.786133 10.3535 0.828125 10.4248L0.910156 10.5566C0.994141 10.6846 1.09082 10.8145 1.19922 10.9521L1.27148 11.042L1.44043 11.25L1.49707 11.3213C1.65918 11.5205 1.70312 11.5762 1.73828 11.6318C1.83203 11.7793 1.89844 11.9463 1.93164 12.124C1.94434 12.1924 1.95117 12.2666 1.9707 12.5273L1.97754 12.6191C2.01758 13.1455 2.04688 13.542 2.16406 13.8896C2.43164 14.6875 3.03418 15.332 3.82031 15.624C4.16309 15.752 4.55371 15.7842 5.04688 15.8252L5.13965 15.833C5.38965 15.8545 5.4541 15.8604 5.51074 15.873C5.66602 15.9053 5.81543 15.9697 5.9502 16.0645C6.00098 16.1006 6.05176 16.1455 6.24316 16.3164L6.31348 16.3789C6.49805 16.5449 6.66309 16.6934 6.82129 16.8213L6.94141 16.9141C7.06445 17.0049 7.18457 17.083 7.30957 17.1455C8.06152 17.5244 8.93848 17.5244 9.69043 17.1455C9.73926 17.1211 9.78809 17.0938 9.83594 17.0645L9.94141 16.9961C10.0342 16.9336 10.127 16.8633 10.2217 16.7861C10.3672 16.667 10.5186 16.5303 10.6865 16.3789L10.7568 16.3164C10.9482 16.1455 10.999 16.1006 11.0498 16.0645C11.1846 15.9697 11.334 15.9053 11.4893 15.873C11.5459 15.8604 11.6104 15.8545 11.8604 15.833L11.9531 15.8252C12.4463 15.7842 12.8369 15.752 13.1797 15.624C13.9658 15.332 14.5684 14.6875 14.8359 13.8896C14.9531 13.542 14.9824 13.1455 15.0225 12.6191L15.0293 12.5273C15.0488 12.2666 15.0557 12.1924 15.0684 12.124C15.1016 11.9463 15.168 11.7793 15.2617 11.6318L15.3193 11.5508L15.5029 11.3213L15.5596 11.25C15.6973 11.0811 15.8203 10.9287 15.9287 10.7842C16.0771 10.5859 16.1973 10.4023 16.2852 10.208C16.458 9.82812 16.5449 9.41699 16.5459 9.00684C16.5469 8.5918 16.46 8.17676 16.2852 7.79199C16.2295 7.66895 16.1611 7.5498 16.0801 7.42773C16.0215 7.34082 15.957 7.25195 15.8867 7.16016C15.7891 7.03223 15.6797 6.89746 15.5596 6.75L15.5029 6.67871C15.3408 6.47949 15.2969 6.42383 15.2617 6.36816C15.168 6.2207 15.1016 6.05371 15.0684 5.87598C15.0557 5.80762 15.0488 5.7334 15.0293 5.47266L15.0225 5.38086C14.9824 4.85449 14.9531 4.45801 14.8359 4.11035C14.5684 3.3125 13.9658 2.66797 13.1797 2.37598C12.8369 2.24805 12.4463 2.21582 11.9531 2.1748L11.8604 2.16699C11.6836 2.15137 11.5996 2.14453 11.5459 2.13672L11.4893 2.12695L11.4082 2.10645C11.3516 2.09082 11.2959 2.07031 11.2412 2.0459C11.1748 2.01562 11.1113 1.97852 11.0498 1.93555C10.999 1.89941 10.9482 1.85449 10.7568 1.68359L10.6865 1.62109C10.3096 1.28223 10.0156 1.01758 9.69043 0.854492ZM7.9834 2.19434C8.31152 2.0293 8.68848 2.0293 9.0166 2.19434C9.13867 2.25586 9.27441 2.36816 9.75586 2.80078L9.78223 2.82422L9.92188 2.94922C10.0137 3.0293 10.0967 3.09863 10.1855 3.16113C10.3262 3.26074 10.4756 3.3457 10.6318 3.41602C10.8076 3.49609 10.9932 3.55664 11.1836 3.5957C11.249 3.60938 11.3154 3.61914 11.3838 3.62793C11.4805 3.63965 11.583 3.64844 11.6992 3.6582L11.7344 3.66113C12.3662 3.71484 12.5332 3.73535 12.6572 3.78125C12.999 3.9082 13.2842 4.19824 13.4141 4.58789C13.4629 4.7334 13.4834 4.92676 13.5332 5.58594L13.5361 5.62012L13.5391 5.64941C13.5547 5.84766 13.5654 6.00098 13.5947 6.15234C13.6621 6.51562 13.7988 6.8623 13.9961 7.17383L14.0605 7.27148L14.1338 7.36914C14.1875 7.43945 14.248 7.5127 14.3154 7.5957L14.3369 7.62305L14.6494 8.01367C14.7109 8.0918 14.7578 8.15527 14.7959 8.20801C14.8574 8.29492 14.8926 8.35449 14.9189 8.41211C15.0244 8.64355 15.0645 8.89941 15.0381 9.14941C15.0225 9.2998 14.9824 9.44824 14.9189 9.58789C14.8984 9.63379 14.8721 9.68066 14.832 9.74121C14.75 9.8623 14.6094 10.04 14.3369 10.377L14.3154 10.4043C14.2314 10.5068 14.1602 10.5947 14.0967 10.6797C14.0605 10.7285 14.0273 10.7764 13.9961 10.8262C13.7988 11.1377 13.6621 11.4844 13.5947 11.8477C13.5645 12.0068 13.5527 12.168 13.5361 12.3799L13.5332 12.4141C13.4834 13.0732 13.4629 13.2666 13.4141 13.4121C13.2842 13.8018 12.999 14.0918 12.6572 14.2188C12.6182 14.2334 12.5732 14.2451 12.5107 14.2568C12.4561 14.2666 12.3867 14.2764 12.2939 14.2871C12.1631 14.3018 11.9854 14.3174 11.7344 14.3389L11.6992 14.3418C11.501 14.3584 11.3418 14.3711 11.1836 14.4043C11.0244 14.4375 10.8691 14.4844 10.7188 14.5459C10.5312 14.6221 10.3525 14.7207 10.1855 14.8389C10.0566 14.9297 9.93848 15.0352 9.79102 15.167L9.78223 15.1758L9.75586 15.1992C9.27441 15.6318 9.13867 15.7441 9.0166 15.8057C8.93457 15.8477 8.84961 15.8779 8.7627 15.8984C8.68555 15.917 8.6084 15.9268 8.53125 15.9287C8.40723 15.9316 8.2832 15.915 8.16309 15.8779C8.10254 15.8594 8.04199 15.835 7.9834 15.8057C7.86133 15.7441 7.72559 15.6318 7.24414 15.1992L7.21777 15.1758L7.20898 15.167L7.02246 15.0029C6.95215 14.9424 6.88477 14.8887 6.81445 14.8389C6.51465 14.627 6.1748 14.4785 5.81641 14.4043C5.6582 14.3711 5.49902 14.3584 5.30078 14.3418L5.26562 14.3389C4.63379 14.2852 4.4668 14.2646 4.34277 14.2188C4.00098 14.0918 3.71582 13.8018 3.58594 13.4121C3.53711 13.2666 3.5166 13.0732 3.4668 12.4141L3.46387 12.3799L3.46094 12.3506L3.45801 12.3105C3.44336 12.1309 3.43262 11.9883 3.40527 11.8477C3.33789 11.4844 3.20117 11.1377 3.00391 10.8262L2.93945 10.7295L2.90039 10.6748C2.83984 10.5947 2.77246 10.5127 2.69434 10.416L2.68457 10.4043L2.66309 10.377C2.25488 9.87305 2.14355 9.72559 2.08105 9.58789C1.91211 9.2168 1.91211 8.7832 2.08105 8.41211C2.10645 8.35645 2.13965 8.29883 2.19824 8.21582C2.2832 8.0957 2.4209 7.92188 2.66309 7.62305L2.68457 7.5957C2.81543 7.43555 2.91699 7.31055 3.00391 7.17383C3.20117 6.8623 3.33789 6.51562 3.40527 6.15234C3.43164 6.01855 3.44141 5.88281 3.45508 5.71582L3.45801 5.68945L3.46094 5.64941L3.46387 5.62012L3.4668 5.58594C3.5166 4.92676 3.53711 4.7334 3.58594 4.58789C3.71582 4.19824 4.00098 3.9082 4.34277 3.78125C4.4668 3.73535 4.63379 3.71484 5.26562 3.66113L5.30078 3.6582L5.31836 3.65723C5.50879 3.6416 5.66309 3.62793 5.81641 3.5957C6.1748 3.52148 6.51465 3.37305 6.81445 3.16113C6.8877 3.10938 6.95801 3.05273 7.03223 2.98926L7.20898 2.83301L7.21777 2.82422L7.24414 2.80078C7.58203 2.49707 7.75 2.35059 7.8623 2.26953C7.91016 2.23535 7.94727 2.21289 7.9834 2.19434ZM11.6123 6.36621C11.585 6.21484 11.5117 6.07031 11.3916 5.95605C11.3174 5.88574 11.2324 5.83301 11.1426 5.79883C11.0654 5.76953 10.9844 5.75391 10.9033 5.75098C10.7861 5.74707 10.6689 5.76953 10.5605 5.81934C10.4766 5.85742 10.3984 5.91211 10.3311 5.9834L5.58105 10.9834C5.2959 11.2842 5.30859 11.7588 5.6084 12.0439C5.90918 12.3291 6.38379 12.3164 6.66895 12.0166L11.4189 7.0166C11.5234 6.90625 11.5879 6.77148 11.6123 6.63184C11.6279 6.54395 11.6279 6.4541 11.6123 6.36621ZM11.2705 11.083C11.2705 11.5439 10.916 11.917 10.4795 11.917C10.042 11.917 9.6875 11.5439 9.6875 11.083C9.6875 10.623 10.042 10.25 10.4795 10.25C10.6582 10.25 10.8232 10.3125 10.9561 10.418C11.0693 10.5078 11.1592 10.6289 11.2129 10.7705C11.25 10.8672 11.2705 10.9727 11.2705 11.083ZM6.52051 7.75C6.95801 7.75 7.3125 7.37695 7.3125 6.91699C7.3125 6.45605 6.95801 6.08301 6.52051 6.08301C6.08398 6.08301 5.72949 6.45605 5.72949 6.91699C5.72949 7.37695 6.08398 7.75 6.52051 7.75Z" fill="#646D7E"/>
</svg>
