<svg width="17" height="20" viewBox="0 0 17 20" fill="none" xmlns="http://www.w3.org/2000/svg">
<path fill-rule="evenodd" clip-rule="evenodd" d="M5.60586 3.80489C6.42195 3.29616 6.98656 2.94528 7.45568 2.71584C7.9098 2.49373 8.2146 2.41667 8.5 2.41667C8.7854 2.41667 9.0902 2.49373 9.54432 2.71584C10.0134 2.94528 10.578 3.29616 11.3941 3.80489L11.9373 4.14351C12.753 4.65195 13.3174 5.00482 13.737 5.32958C14.1421 5.64302 14.3682 5.89799 14.5227 6.18699C14.6788 6.47883 14.773 6.82629 14.823 7.37386C14.8743 7.9356 14.875 8.64668 14.875 9.66138V10.3386C14.875 11.3533 14.8743 12.0644 14.823 12.6261C14.773 13.1737 14.6788 13.5212 14.5227 13.813C14.3682 14.102 14.1421 14.357 13.737 14.6704C13.3174 14.9952 12.753 15.3481 11.9374 15.8565L11.3941 16.1951C10.578 16.7038 10.0134 17.0547 9.54432 17.2842C9.0902 17.5063 8.7854 17.5833 8.5 17.5833C8.2146 17.5833 7.9098 17.5063 7.45568 17.2842C6.98656 17.0547 6.42195 16.7038 5.60586 16.1951L5.2091 16.8316L5.60586 16.1951L5.06265 15.8565C4.24702 15.3481 3.68263 14.9952 3.26296 14.6704C2.85792 14.357 2.63182 14.102 2.47728 13.813C2.32123 13.5212 2.227 13.1737 2.17701 12.6261C2.12572 12.0644 2.125 11.3533 2.125 10.3386V9.66138C2.125 8.64668 2.12572 7.9356 2.17701 7.37386C2.227 6.82629 2.32123 6.47883 2.47728 6.18699C2.63181 5.89799 2.85792 5.64301 3.26296 5.32958C3.68263 5.00482 4.24702 4.65195 5.06265 4.14351L5.60586 3.80489ZM8.5 0.916667C7.9036 0.916667 7.36599 1.0899 6.79663 1.36838C6.25011 1.63568 5.62043 2.02822 4.84582 2.5111L4.81235 2.53196L4.26914 2.87058L4.23676 2.89077C3.4612 3.37421 2.83179 3.76656 2.34496 4.14329C1.83674 4.53657 1.44087 4.94415 1.15452 5.47967C0.869671 6.01236 0.743451 6.57775 0.683218 7.23748C0.624984 7.87533 0.624991 8.65483 0.625 9.62601V9.66138V10.3386V10.374C0.624991 11.3452 0.624984 12.1247 0.683218 12.7625C0.743451 13.4223 0.869671 13.9876 1.15452 14.5203C1.44087 15.0558 1.83674 15.4634 2.34496 15.8567C2.83179 16.2334 3.46121 16.6258 4.23677 17.1092L4.26914 17.1294L4.81235 17.468L4.84578 17.4889L4.84581 17.4889C5.62042 17.9718 6.25011 18.3643 6.79663 18.6316C7.36599 18.9101 7.9036 19.0833 8.5 19.0833C9.0964 19.0833 9.634 18.9101 10.2034 18.6316C10.7499 18.3643 11.3796 17.9718 12.1542 17.4889L12.1876 17.468L12.7309 17.1294L12.7632 17.1092C13.5388 16.6258 14.1682 16.2334 14.655 15.8567C15.1633 15.4634 15.5591 15.0558 15.8455 14.5203C16.1303 13.9876 16.2565 13.4223 16.3168 12.7625C16.375 12.1247 16.375 11.3452 16.375 10.374V10.3386V9.66138V9.626C16.375 8.65483 16.375 7.87533 16.3168 7.23748C16.2565 6.57775 16.1303 6.01236 15.8455 5.47967C15.5591 4.94415 15.1633 4.53657 14.655 4.14329C14.1682 3.76657 13.5388 3.37423 12.7633 2.89079L12.7632 2.89077L12.7309 2.87058L12.1876 2.53196L11.7909 3.16843L12.1876 2.53196L12.1542 2.5111L12.1542 2.51109C11.3796 2.02821 10.7499 1.63568 10.2034 1.36838C9.634 1.0899 9.0964 0.916667 8.5 0.916667ZM6.875 10C6.875 8.99679 7.63832 8.25 8.5 8.25C9.36168 8.25 10.125 8.99679 10.125 10C10.125 11.0032 9.36168 11.75 8.5 11.75C7.63832 11.75 6.875 11.0032 6.875 10ZM8.5 6.75C6.73833 6.75 5.375 8.24179 5.375 10C5.375 11.7582 6.73833 13.25 8.5 13.25C10.2617 13.25 11.625 11.7582 11.625 10C11.625 8.24179 10.2617 6.75 8.5 6.75Z" fill="#646D7E"/>
</svg>
