<svg width="20" height="16" viewBox="0 0 20 16" fill="none" xmlns="http://www.w3.org/2000/svg">
<path fill-rule="evenodd" clip-rule="evenodd" d="M12.0833 5.58331C13.0498 5.58331 13.8333 4.79981 13.8333 3.83331C13.8333 2.86681 13.0498 2.08331 12.0833 2.08331C11.1168 2.08331 10.3333 2.86681 10.3333 3.83331C10.3333 4.79981 11.1168 5.58331 12.0833 5.58331ZM15.3333 3.83331C15.3333 5.62824 13.8783 7.08331 12.0833 7.08331C10.2884 7.08331 8.83333 5.62824 8.83333 3.83331C8.83333 2.03839 10.2884 0.583313 12.0833 0.583313C13.8783 0.583313 15.3333 2.03839 15.3333 3.83331ZM7.91667 13.9166C6.95017 13.9166 6.16667 13.1331 6.16667 12.1666C6.16667 11.2001 6.95017 10.4166 7.91667 10.4166C8.88317 10.4166 9.66667 11.2001 9.66667 12.1666C9.66667 13.1331 8.88317 13.9166 7.91667 13.9166ZM4.66667 12.1666C4.66667 13.9616 6.12174 15.4166 7.91667 15.4166C9.71159 15.4166 11.1667 13.9616 11.1667 12.1666C11.1667 10.3717 9.71159 8.91665 7.91667 8.91665C6.12174 8.91665 4.66667 10.3717 4.66667 12.1666ZM11.75 12.1321C11.75 11.7179 12.0858 11.3821 12.5 11.3821H18.3333C18.7475 11.3821 19.0833 11.7179 19.0833 12.1321C19.0833 12.5463 18.7475 12.8821 18.3333 12.8821H12.5C12.0858 12.8821 11.75 12.5463 11.75 12.1321ZM7.5 3.04875C7.91421 3.04875 8.25 3.38453 8.25 3.79875C8.25 4.21296 7.91421 4.54875 7.5 4.54875L1.66667 4.54875C1.25245 4.54875 0.916666 4.21296 0.916667 3.79875C0.916667 3.38453 1.25245 3.04875 1.66667 3.04875L7.5 3.04875ZM0.916667 12.1321C0.916667 11.7179 1.25245 11.3821 1.66667 11.3821H3.33333C3.74755 11.3821 4.08333 11.7179 4.08333 12.1321C4.08333 12.5463 3.74755 12.8821 3.33333 12.8821H1.66667C1.25245 12.8821 0.916667 12.5463 0.916667 12.1321ZM18.3333 3.04875C18.7475 3.04875 19.0833 3.38453 19.0833 3.79875C19.0833 4.21296 18.7475 4.54875 18.3333 4.54875H16.6667C16.2525 4.54875 15.9167 4.21296 15.9167 3.79875C15.9167 3.38453 16.2525 3.04875 16.6667 3.04875H18.3333Z" fill="#646D7E"/>
</svg>
