<svg width="20" height="21" viewBox="0 0 20 21" fill="none" xmlns="http://www.w3.org/2000/svg">
<path fill-rule="evenodd" clip-rule="evenodd" d="M9.99996 1.54166C7.81383 1.54166 6.04163 3.31386 6.04163 5.49999C6.04163 7.68612 7.81383 9.45832 9.99996 9.45832C12.1861 9.45832 13.9583 7.68612 13.9583 5.49999C13.9583 3.31386 12.1861 1.54166 9.99996 1.54166ZM7.29163 5.49999C7.29163 4.00422 8.50419 2.79166 9.99996 2.79166C11.4957 2.79166 12.7083 4.00422 12.7083 5.49999C12.7083 6.99576 11.4957 8.20832 9.99996 8.20832C8.50419 8.20832 7.29163 6.99576 7.29163 5.49999Z" fill="#646D7E"/>
<path fill-rule="evenodd" clip-rule="evenodd" d="M9.99996 10.7083C8.30051 10.7083 6.73122 11.1006 5.56508 11.767C4.41662 12.4232 3.54163 13.4251 3.54163 14.6667C3.54163 15.9082 4.41662 16.9101 5.56508 17.5663C6.73122 18.2327 8.30051 18.625 9.99996 18.625C11.6994 18.625 13.2687 18.2327 14.4348 17.5663C15.5833 16.9101 16.4583 15.9082 16.4583 14.6667C16.4583 13.4251 15.5833 12.4232 14.4348 11.767C13.2687 11.1006 11.6994 10.7083 9.99996 10.7083ZM4.79163 14.6667C4.79163 14.0673 5.22246 13.4025 6.18526 12.8523C7.13037 12.3122 8.47774 11.9583 9.99996 11.9583C11.5222 11.9583 12.8696 12.3122 13.8147 12.8523C14.7775 13.4025 15.2083 14.0673 15.2083 14.6667C15.2083 15.2661 14.7775 15.9309 13.8147 16.481C12.8696 17.0211 11.5222 17.375 9.99996 17.375C8.47774 17.375 7.13037 17.0211 6.18526 16.481C5.22246 15.9309 4.79163 15.2661 4.79163 14.6667Z" fill="#646D7E"/>
</svg>
