<svg width="19" height="18" viewBox="0 0 19 18" fill="none" xmlns="http://www.w3.org/2000/svg">
<path fill-rule="evenodd" clip-rule="evenodd" d="M10.0718 2.05145C9.49689 1.65017 8.71144 1.65017 8.13651 2.05144L7.13402 2.75115C7.36738 2.75048 7.60898 2.75048 7.85899 2.75049L7.91667 2.75049H10.2917L10.3493 2.75049C10.5993 2.75048 10.841 2.75048 11.0743 2.75115L10.0718 2.05145ZM7.278 0.821421L4.3266 2.88139C3.37843 3.01684 2.58932 3.30524 1.96708 3.96024C1.34774 4.61217 1.08101 5.43046 0.955314 6.41456C0.833304 7.36982 0.833317 8.58778 0.833333 10.1141L0.833333 10.1672L0.833333 10.2202C0.833317 11.7465 0.833304 12.9645 0.955314 13.9197C1.08101 14.9039 1.34774 15.7221 1.96708 16.3741C2.59157 17.0314 3.38413 17.3195 4.33688 17.4544C5.25177 17.5839 6.41519 17.5838 7.85892 17.5838H7.85895H7.85897H7.85899H7.91667H10.2917H10.3493H10.3494H10.3494H10.3494C11.7931 17.5838 12.9566 17.5839 13.8715 17.4544C14.8242 17.3195 15.6168 17.0314 16.2413 16.3741C16.9913 15.5846 17.2307 14.5413 17.3189 13.2304C17.7898 12.9817 18.1251 12.5066 18.1632 11.9385C18.1667 11.885 18.1667 11.8277 18.1667 11.7783L18.1667 11.7644V8.56993L18.1667 8.55598C18.1667 8.5066 18.1667 8.44929 18.1632 8.39581C18.1251 7.82772 17.7898 7.35259 17.3189 7.10392C17.2307 5.79304 16.9913 4.74971 16.2413 3.96024C15.619 3.30524 14.8299 3.01684 13.8817 2.88139L10.9303 0.821421C9.83966 0.0601776 8.36867 0.0601773 7.278 0.821421ZM15.7988 6.91716C15.7038 5.89188 15.5046 5.36264 15.1538 4.99336C14.8507 4.67441 14.4332 4.47437 13.6613 4.36513C12.8637 4.25225 11.8067 4.25049 10.2917 4.25049H7.91667C6.4016 4.25049 5.34466 4.25225 4.54707 4.36513C3.77516 4.47437 3.35758 4.67441 3.05458 4.99336C2.74642 5.31773 2.54941 5.77328 2.44323 6.6046C2.33477 7.45372 2.33333 8.57564 2.33333 10.1672C2.33333 11.7587 2.33477 12.8806 2.44323 13.7297C2.54941 14.561 2.74642 15.0166 3.05458 15.3409C3.35758 15.6599 3.77516 15.8599 4.54707 15.9692C5.34466 16.0821 6.4016 16.0838 7.91667 16.0838H10.2917C11.8067 16.0838 12.8637 16.0821 13.6613 15.9692C14.4332 15.8599 14.8508 15.6599 15.1538 15.3409C15.5046 14.9717 15.7038 14.4424 15.7988 13.4172H14.4327C12.6221 13.4172 11.125 11.9781 11.125 10.1672C11.125 8.35619 12.6221 6.91716 14.4327 6.91716H15.7988ZM4 6.83382C4 6.41961 4.33579 6.08382 4.75 6.08382H7.91667C8.33088 6.08382 8.66667 6.41961 8.66667 6.83382C8.66667 7.24803 8.33088 7.58382 7.91667 7.58382H4.75C4.33579 7.58382 4 7.24803 4 6.83382ZM16.5624 8.41733C16.5476 8.41717 16.5277 8.41716 16.4931 8.41716H14.4327C13.4181 8.41716 12.625 9.2167 12.625 10.1672C12.625 11.1176 13.4181 11.9172 14.4327 11.9172H16.4931C16.5277 11.9172 16.5476 11.9171 16.5624 11.917L16.5737 11.9168C16.6355 11.9121 16.6633 11.8687 16.6663 11.8402L16.6665 11.8316C16.6667 11.8174 16.6667 11.7983 16.6667 11.7644V8.56993C16.6667 8.53596 16.6667 8.51688 16.6665 8.50275L16.6663 8.49415C16.6633 8.46564 16.6355 8.42226 16.5737 8.41753L16.5624 8.41733ZM14.2431 9.16716C13.6908 9.16716 13.2431 9.61487 13.2431 10.1672C13.2431 10.7194 13.6908 11.1672 14.2431 11.1672H14.2502C14.8025 11.1672 15.2502 10.7194 15.2502 10.1672C15.2502 9.61487 14.8025 9.16716 14.2502 9.16716H14.2431Z" fill="#646D7E"/>
</svg>
