<svg width="19" height="21" viewBox="0 0 19 21" fill="none" xmlns="http://www.w3.org/2000/svg">
<path fill-rule="evenodd" clip-rule="evenodd" d="M5.10467 1.95837C4.39338 1.95835 3.80023 1.95833 3.32937 2.02497C2.83237 2.09531 2.38365 2.25003 2.02307 2.62959C1.66249 3.00915 1.5155 3.48148 1.44868 4.00464C1.38537 4.50029 1.38539 5.12463 1.38541 5.87335V5.96004C1.38539 6.70877 1.38537 7.33313 1.44868 7.82878C1.5155 8.35194 1.66249 8.82427 2.02307 9.20383C2.38365 9.58339 2.83237 9.73811 3.32937 9.80845C3.80023 9.87509 4.39336 9.87507 5.10465 9.87504H5.187C5.89828 9.87507 6.49143 9.87509 6.9623 9.80845C7.4593 9.73811 7.90802 9.58339 8.2686 9.20383C8.62918 8.82427 8.77617 8.35194 8.84299 7.82878C8.90629 7.33313 8.90627 6.70879 8.90625 5.96006V5.87338C8.90627 5.12466 8.90629 4.50029 8.84299 4.00464C8.77617 3.48148 8.62918 3.00915 8.2686 2.62959C7.90802 2.25003 7.4593 2.09531 6.9623 2.02497C6.49143 1.95833 5.89831 1.95835 5.18702 1.95837H5.10467ZM2.86276 3.51347C2.96593 3.40488 3.12228 3.31552 3.4876 3.26382C3.87001 3.2097 4.38266 3.20838 5.14583 3.20838C5.90901 3.20838 6.42166 3.2097 6.80406 3.26382C7.16939 3.31552 7.32574 3.40488 7.42891 3.51347C7.53207 3.62207 7.61696 3.78665 7.66608 4.1712C7.71749 4.57373 7.71875 5.11337 7.71875 5.91671C7.71875 6.72005 7.71749 7.25969 7.66608 7.66222C7.61696 8.04677 7.53207 8.21135 7.42891 8.31995C7.32574 8.42854 7.16939 8.5179 6.80406 8.5696C6.42166 8.62372 5.90901 8.62504 5.14583 8.62504C4.38266 8.62504 3.87001 8.62372 3.4876 8.5696C3.12228 8.5179 2.96593 8.42854 2.86276 8.31995C2.75959 8.21135 2.67471 8.04677 2.62559 7.66222C2.57418 7.25969 2.57292 6.72005 2.57292 5.91671C2.57292 5.11337 2.57418 4.57373 2.62559 4.1712C2.67471 3.78665 2.75959 3.62207 2.86276 3.51347Z" fill="#646D7E"/>
<path fill-rule="evenodd" clip-rule="evenodd" d="M13.813 11.125C13.1017 11.125 12.5086 11.125 12.0377 11.1916C11.5407 11.262 11.092 11.4167 10.7314 11.7963C10.3708 12.1758 10.2238 12.6481 10.157 13.1713C10.0937 13.667 10.0937 14.2913 10.0937 15.04V15.1267C10.0937 15.8754 10.0937 16.4998 10.157 16.9954C10.2238 17.5186 10.3708 17.9909 10.7314 18.3705C11.092 18.7501 11.5407 18.9048 12.0377 18.9751C12.5086 19.0418 13.1017 19.0417 13.8129 19.0417H13.8953C14.6066 19.0417 15.1998 19.0418 15.6706 18.9751C16.1676 18.9048 16.6164 18.7501 16.9769 18.3705C17.3375 17.9909 17.4845 17.5186 17.5513 16.9954C17.6146 16.4998 17.6146 15.8755 17.6146 15.1268V15.04C17.6146 14.2913 17.6146 13.6669 17.5513 13.1713C17.4845 12.6481 17.3375 12.1758 16.9769 11.7963C16.6164 11.4167 16.1676 11.262 15.6706 11.1916C15.1998 11.125 14.6066 11.125 13.8953 11.125H13.813ZM11.5711 12.6801C11.6743 12.5715 11.8306 12.4822 12.1959 12.4305C12.5783 12.3764 13.091 12.375 13.8542 12.375C14.6173 12.375 15.13 12.3764 15.5124 12.4305C15.8777 12.4822 16.0341 12.5715 16.1372 12.6801C16.2404 12.7887 16.3253 12.9533 16.3744 13.3379C16.4258 13.7404 16.4271 14.28 16.4271 15.0834C16.4271 15.8867 16.4258 16.4264 16.3744 16.8289C16.3253 17.2134 16.2404 17.378 16.1372 17.4866C16.0341 17.5952 15.8777 17.6846 15.5124 17.7363C15.13 17.7904 14.6173 17.7917 13.8542 17.7917C13.091 17.7917 12.5783 17.7904 12.1959 17.7363C11.8306 17.6846 11.6743 17.5952 11.5711 17.4866C11.4679 17.378 11.383 17.2134 11.3339 16.8289C11.2825 16.4264 11.2812 15.8867 11.2812 15.0834C11.2812 14.28 11.2825 13.7404 11.3339 13.3379C11.383 12.9533 11.4679 12.7887 11.5711 12.6801Z" fill="#646D7E"/>
<path fill-rule="evenodd" clip-rule="evenodd" d="M5.10467 11.125H5.187C5.8983 11.125 6.49143 11.125 6.9623 11.1916C7.4593 11.262 7.90802 11.4167 8.2686 11.7963C8.62918 12.1758 8.77617 12.6481 8.84299 13.1713C8.90629 13.667 8.90627 14.2913 8.90625 15.04V15.1267C8.90627 15.8754 8.90629 16.4998 8.84299 16.9954C8.77617 17.5186 8.62918 17.9909 8.2686 18.3705C7.90802 18.7501 7.4593 18.9048 6.9623 18.9751C6.49144 19.0418 5.89832 19.0417 5.18705 19.0417H5.10467C4.39339 19.0417 3.80023 19.0418 3.32937 18.9751C2.83237 18.9048 2.38365 18.7501 2.02307 18.3705C1.66249 17.9909 1.5155 17.5186 1.44868 16.9954C1.38537 16.4998 1.38539 15.8755 1.38541 15.1267V15.04C1.38539 14.2913 1.38537 13.667 1.44868 13.1713C1.5155 12.6481 1.66249 12.1758 2.02307 11.7963C2.38365 11.4167 2.83237 11.262 3.32937 11.1916C3.80024 11.125 4.39337 11.125 5.10467 11.125ZM3.4876 12.4305C3.12228 12.4822 2.96593 12.5715 2.86276 12.6801C2.75959 12.7887 2.67471 12.9533 2.62559 13.3379C2.57418 13.7404 2.57292 14.28 2.57292 15.0834C2.57292 15.8867 2.57418 16.4264 2.62559 16.8289C2.67471 17.2134 2.75959 17.378 2.86276 17.4866C2.96593 17.5952 3.12228 17.6846 3.4876 17.7363C3.87001 17.7904 4.38266 17.7917 5.14583 17.7917C5.90901 17.7917 6.42166 17.7904 6.80406 17.7363C7.16939 17.6846 7.32574 17.5952 7.42891 17.4866C7.53207 17.378 7.61696 17.2134 7.66608 16.8289C7.71749 16.4264 7.71875 15.8867 7.71875 15.0834C7.71875 14.28 7.71749 13.7404 7.66608 13.3379C7.61696 12.9533 7.53207 12.7887 7.42891 12.6801C7.32574 12.5715 7.16939 12.4822 6.80406 12.4305C6.42166 12.3764 5.90901 12.375 5.14583 12.375C4.38266 12.375 3.87001 12.3764 3.4876 12.4305Z" fill="#646D7E"/>
<path fill-rule="evenodd" clip-rule="evenodd" d="M13.813 1.95837C13.1017 1.95835 12.5086 1.95833 12.0377 2.02497C11.5407 2.09531 11.092 2.25003 10.7314 2.62959C10.3708 3.00915 10.2238 3.48148 10.157 4.00464C10.0937 4.50029 10.0937 5.12464 10.0937 5.87338V5.96004C10.0937 6.70878 10.0937 7.33313 10.157 7.82878C10.2238 8.35194 10.3708 8.82427 10.7314 9.20383C11.092 9.58339 11.5407 9.73811 12.0377 9.80845C12.5086 9.87509 13.1017 9.87507 13.813 9.87504H13.8953C14.6066 9.87507 15.1998 9.87509 15.6706 9.80845C16.1676 9.73811 16.6164 9.58339 16.9769 9.20383C17.3375 8.82427 17.4845 8.35194 17.5513 7.82878C17.6146 7.33313 17.6146 6.70879 17.6146 5.96006V5.87338C17.6146 5.12466 17.6146 4.50029 17.5513 4.00464C17.4845 3.48148 17.3375 3.00915 16.9769 2.62959C16.6164 2.25003 16.1676 2.09531 15.6706 2.02497C15.1998 1.95833 14.6066 1.95835 13.8954 1.95837H13.813ZM11.5711 3.51347C11.6743 3.40488 11.8306 3.31552 12.1959 3.26382C12.5783 3.2097 13.091 3.20838 13.8542 3.20838C14.6173 3.20838 15.13 3.2097 15.5124 3.26382C15.8777 3.31552 16.0341 3.40488 16.1372 3.51347C16.2404 3.62207 16.3253 3.78665 16.3744 4.1712C16.4258 4.57373 16.4271 5.11337 16.4271 5.91671C16.4271 6.72005 16.4258 7.25969 16.3744 7.66222C16.3253 8.04677 16.2404 8.21135 16.1372 8.31995C16.0341 8.42854 15.8777 8.5179 15.5124 8.5696C15.13 8.62372 14.6173 8.62504 13.8542 8.62504C13.091 8.62504 12.5783 8.62372 12.1959 8.5696C11.8306 8.5179 11.6743 8.42854 11.5711 8.31995C11.4679 8.21135 11.383 8.04677 11.3339 7.66222C11.2825 7.25969 11.2812 6.72005 11.2812 5.91671C11.2812 5.11337 11.2825 4.57373 11.3339 4.1712C11.383 3.78665 11.4679 3.62207 11.5711 3.51347Z" fill="#646D7E"/>
</svg>
