<svg width="18" height="18" viewBox="0 0 18 18" fill="none" xmlns="http://www.w3.org/2000/svg">
<path fill-rule="evenodd" clip-rule="evenodd" d="M4.41667 0.333333L4.36627 0.333332C3.62365 0.333297 2.99203 0.333268 2.48794 0.401041C1.95092 0.473241 1.44781 0.634504 1.04116 1.04116C0.634504 1.44781 0.473241 1.95092 0.401041 2.48794C0.333268 2.99203 0.333297 3.62365 0.333332 4.36627L0.333333 4.41667L0.333332 4.46706C0.333297 5.20968 0.333268 5.84131 0.401041 6.34539C0.473241 6.88241 0.634504 7.38552 1.04116 7.79217C1.44781 8.19883 1.95092 8.36009 2.48794 8.43229C2.99202 8.50006 3.62362 8.50004 4.36622 8.5H4.36623H4.36624H4.36628L4.41667 8.5L4.46706 8.5H4.4671H4.4671H4.46711C5.20971 8.50004 5.84132 8.50006 6.34539 8.43229C6.88241 8.36009 7.38552 8.19883 7.79217 7.79217C8.19883 7.38552 8.36009 6.88241 8.43229 6.34539C8.50006 5.84132 8.50004 5.20971 8.5 4.46711V4.4671V4.4671V4.46706L8.5 4.41667L8.5 4.36628V4.36624V4.36623V4.36622C8.50004 3.62362 8.50006 2.99202 8.43229 2.48794C8.36009 1.95092 8.19883 1.44781 7.79217 1.04116C7.38552 0.634504 6.88241 0.473241 6.34539 0.401041C5.84131 0.333268 5.20968 0.333297 4.46706 0.333332L4.41667 0.333333ZM2.10182 2.10182C2.18332 2.02032 2.31713 1.9375 2.68782 1.88766C3.08008 1.83493 3.60979 1.83333 4.41667 1.83333C5.22354 1.83333 5.75325 1.83493 6.14552 1.88766C6.51621 1.9375 6.65001 2.02032 6.73151 2.10182C6.81301 2.18332 6.89583 2.31713 6.94567 2.68782C6.99841 3.08008 7 3.60979 7 4.41667C7 5.22354 6.99841 5.75325 6.94567 6.14552C6.89583 6.51621 6.81301 6.65001 6.73151 6.73151C6.65001 6.81301 6.51621 6.89583 6.14552 6.94567C5.75325 6.99841 5.22354 7 4.41667 7C3.60979 7 3.08008 6.99841 2.68782 6.94567C2.31713 6.89583 2.18332 6.81301 2.10182 6.73151C2.02032 6.65001 1.9375 6.51621 1.88766 6.14552C1.83493 5.75325 1.83333 5.22354 1.83333 4.41667C1.83333 3.60979 1.83493 3.08008 1.88766 2.68782C1.9375 2.31713 2.02032 2.18332 2.10182 2.10182ZM14.3333 1.91667C14.3333 1.50245 13.9975 1.16667 13.5833 1.16667C13.1691 1.16667 12.8333 1.50245 12.8333 1.91667V3.66667H11.0833C10.6691 3.66667 10.3333 4.00245 10.3333 4.41667C10.3333 4.83088 10.6691 5.16667 11.0833 5.16667H12.8333V6.91667C12.8333 7.33088 13.1691 7.66667 13.5833 7.66667C13.9975 7.66667 14.3333 7.33088 14.3333 6.91667V5.16667H16.0833C16.4975 5.16667 16.8333 4.83088 16.8333 4.41667C16.8333 4.00245 16.4975 3.66667 16.0833 3.66667H14.3333V1.91667ZM13.5329 9.5L13.5833 9.5L13.6337 9.5C14.3763 9.49996 15.008 9.49994 15.5121 9.56771C16.0491 9.63991 16.5522 9.80117 16.9588 10.2078C17.3655 10.6145 17.5268 11.1176 17.599 11.6546C17.6667 12.1587 17.6667 12.7903 17.6667 13.5329L17.6667 13.5833L17.6667 13.6337C17.6667 14.3763 17.6667 15.008 17.599 15.5121C17.5268 16.0491 17.3655 16.5522 16.9588 16.9588C16.5522 17.3655 16.0491 17.5268 15.5121 17.599C15.008 17.6667 14.3763 17.6667 13.6337 17.6667L13.5833 17.6667L13.5329 17.6667C12.7903 17.6667 12.1587 17.6667 11.6546 17.599C11.1176 17.5268 10.6145 17.3655 10.2078 16.9588C9.80117 16.5522 9.63991 16.0491 9.56771 15.5121C9.49994 15.008 9.49996 14.3763 9.5 13.6337L9.5 13.5833L9.5 13.5329C9.49996 12.7903 9.49994 12.1587 9.56771 11.6546C9.63991 11.1176 9.80117 10.6145 10.2078 10.2078C10.6145 9.80117 11.1176 9.63991 11.6546 9.56771C12.1587 9.49994 12.7903 9.49996 13.5329 9.5ZM11.8545 11.0543C11.4838 11.1042 11.35 11.187 11.2685 11.2685C11.187 11.35 11.1042 11.4838 11.0543 11.8545C11.0016 12.2467 11 12.7765 11 13.5833C11 14.3902 11.0016 14.9199 11.0543 15.3122C11.1042 15.6829 11.187 15.8167 11.2685 15.8982C11.35 15.9797 11.4838 16.0625 11.8545 16.1123C12.2467 16.1651 12.7765 16.1667 13.5833 16.1667C14.3902 16.1667 14.9199 16.1651 15.3122 16.1123C15.6829 16.0625 15.8167 15.9797 15.8982 15.8982C15.9797 15.8167 16.0625 15.6829 16.1123 15.3122C16.1651 14.9199 16.1667 14.3902 16.1667 13.5833C16.1667 12.7765 16.1651 12.2467 16.1123 11.8545C16.0625 11.4838 15.9797 11.35 15.8982 11.2685C15.8167 11.187 15.6829 11.1042 15.3122 11.0543C14.9199 11.0016 14.3902 11 13.5833 11C12.7765 11 12.2467 11.0016 11.8545 11.0543ZM4.41667 9.5L4.36627 9.5C3.62365 9.49996 2.99203 9.49994 2.48794 9.56771C1.95092 9.63991 1.44781 9.80117 1.04116 10.2078C0.634504 10.6145 0.473241 11.1176 0.401041 11.6546C0.333268 12.1587 0.333297 12.7903 0.333332 13.5329L0.333333 13.5833L0.333332 13.6337C0.333297 14.3763 0.333268 15.008 0.401041 15.5121C0.473241 16.0491 0.634504 16.5522 1.04116 16.9588C1.44781 17.3655 1.95092 17.5268 2.48794 17.599C2.99203 17.6667 3.62365 17.6667 4.36628 17.6667L4.41667 17.6667L4.46706 17.6667C5.20968 17.6667 5.8413 17.6667 6.34539 17.599C6.88241 17.5268 7.38552 17.3655 7.79217 16.9588C8.19883 16.5522 8.36009 16.0491 8.43229 15.5121C8.50006 15.008 8.50004 14.3764 8.5 13.6338V13.6337L8.5 13.5833L8.5 13.5329V13.5329C8.50004 12.7903 8.50006 12.1587 8.43229 11.6546C8.36009 11.1176 8.19883 10.6145 7.79217 10.2078C7.38552 9.80117 6.88241 9.63991 6.34539 9.56771C5.84131 9.49994 5.20968 9.49996 4.46706 9.5L4.41667 9.5ZM2.10182 11.2685C2.18332 11.187 2.31713 11.1042 2.68782 11.0543C3.08008 11.0016 3.60979 11 4.41667 11C5.22354 11 5.75325 11.0016 6.14552 11.0543C6.51621 11.1042 6.65001 11.187 6.73151 11.2685C6.81301 11.35 6.89583 11.4838 6.94567 11.8545C6.99841 12.2467 7 12.7765 7 13.5833C7 14.3902 6.99841 14.9199 6.94567 15.3122C6.89583 15.6829 6.81301 15.8167 6.73151 15.8982C6.65001 15.9797 6.51621 16.0625 6.14552 16.1123C5.75325 16.1651 5.22354 16.1667 4.41667 16.1667C3.60979 16.1667 3.08008 16.1651 2.68782 16.1123C2.31713 16.0625 2.18332 15.9797 2.10182 15.8982C2.02032 15.8167 1.9375 15.6829 1.88766 15.3122C1.83493 14.9199 1.83333 14.3902 1.83333 13.5833C1.83333 12.7765 1.83493 12.2467 1.88766 11.8545C1.9375 11.4838 2.02032 11.35 2.10182 11.2685Z" fill="#646D7E"/>
</svg>
