<svg width="32" height="32" viewBox="0 0 32 32" fill="none" xmlns="http://www.w3.org/2000/svg">
<g filter="url(#filter0_b_2016_25718)">
<rect width="32" height="32" rx="4" fill="white" fill-opacity="0.3"/>
<path fill-rule="evenodd" clip-rule="evenodd" d="M17.5117 9.22781C17.8129 8.92406 18.3014 8.92406 18.6026 9.22781L24.7741 15.45C25.0753 15.7538 25.0753 16.2462 24.7741 16.55L18.6026 22.7722C18.3014 23.0759 17.8129 23.0759 17.5117 22.7722C17.2104 22.4685 17.2104 21.976 17.5117 21.6723L22.3662 16.7778H7.77143C7.34538 16.7778 7 16.4296 7 16C7 15.5704 7.34538 15.2222 7.77143 15.2222H22.3662L17.5117 10.3277C17.2104 10.024 17.2104 9.53155 17.5117 9.22781Z" fill="white"/>
</g>
<defs>
<filter id="filter0_b_2016_25718" x="-60" y="-60" width="152" height="152" filterUnits="userSpaceOnUse" color-interpolation-filters="sRGB">
<feFlood flood-opacity="0" result="BackgroundImageFix"/>
<feGaussianBlur in="BackgroundImageFix" stdDeviation="30"/>
<feComposite in2="SourceAlpha" operator="in" result="effect1_backgroundBlur_2016_25718"/>
<feBlend mode="normal" in="SourceGraphic" in2="effect1_backgroundBlur_2016_25718" result="shape"/>
</filter>
</defs>
</svg>
