<svg width="42" height="42" viewBox="0 0 42 42" fill="none" xmlns="http://www.w3.org/2000/svg">
<path fill-rule="evenodd" clip-rule="evenodd" d="M41.8334 21C41.8334 32.5059 32.506 41.8333 21.0001 41.8333C9.49415 41.8333 0.166748 32.5059 0.166748 21C0.166748 9.49403 9.49415 0.166626 21.0001 0.166626C32.506 0.166626 41.8334 9.49403 41.8334 21ZM29.3966 14.6868C30.0068 15.297 30.0068 16.2863 29.3966 16.8965L18.9799 27.3132C18.3697 27.9233 17.3804 27.9233 16.7702 27.3132L12.6036 23.1465C11.9934 22.5363 11.9934 21.547 12.6036 20.9368C13.2138 20.3266 14.2031 20.3266 14.8133 20.9368L17.8751 23.9986L22.531 19.3427L27.1869 14.6868C27.7971 14.0766 28.7864 14.0766 29.3966 14.6868Z" fill="#14BA6D"/>
</svg>
